<svg width="12" height="17" viewBox="0 0 12 17" fill="none" xmlns="http://www.w3.org/2000/svg">
<path fill-rule="evenodd" clip-rule="evenodd" d="M5.65523 0.224365C2.53221 0.224365 0 2.65441 0 5.65212C0 6.4262 0.172416 7.16244 0.475867 7.82872L5.75179 16.2244L10.8346 7.82872C11.1472 7.1455 11.3087 6.40315 11.3082 5.65212C11.3082 2.65441 8.77825 0.224365 5.65523 0.224365ZM5.65523 9.50189C5.18852 9.50114 4.72653 9.40862 4.29567 9.22963C3.86481 9.05064 3.47354 8.78868 3.14422 8.45873C2.8149 8.12878 2.55398 7.73731 2.37639 7.3067C2.1988 6.87609 2.10801 6.41477 2.10922 5.94914C2.10831 5.48364 2.19931 5.02252 2.37703 4.5921C2.55474 4.16169 2.81569 3.77042 3.14496 3.44062C3.47424 3.11082 3.8654 2.84896 4.29612 2.66999C4.72683 2.49101 5.18866 2.39843 5.65523 2.39753C6.59754 2.39966 7.50045 2.77493 8.16557 3.44089C8.8307 4.10684 9.20362 5.009 9.2024 5.94914C9.20392 6.88947 8.83113 7.79192 8.16598 8.45813C7.50082 9.12433 6.59773 9.49976 5.65523 9.50189ZM7.92767 5.90326C7.92828 6.2017 7.86994 6.49732 7.75599 6.77325C7.64205 7.04919 7.47473 7.30002 7.26359 7.51141C7.05245 7.72281 6.80164 7.89063 6.52547 8.00529C6.24931 8.11994 5.95321 8.17919 5.65408 8.17964C5.05027 8.17812 4.47176 7.93751 4.04566 7.51067C3.61956 7.08383 3.38073 6.50569 3.38165 5.90326C3.38119 5.60508 3.43961 5.30973 3.55357 5.03407C3.66752 4.75841 3.83478 4.50784 4.0458 4.29667C4.25681 4.0855 4.50745 3.91787 4.7834 3.80334C5.05935 3.68881 5.35521 3.62963 5.65408 3.62918C6.90927 3.62918 7.92767 4.64868 7.92767 5.90326Z" fill="#333333"/>
</svg>
