<svg xmlns="http://www.w3.org/2000/svg" width="217" height="55" viewBox="0 0 217 55" fill="none">
    <path d="M80.4182 34.0138H72.7054V38.804H76.6827C78.3527 38.826 79.6565 39.2545 80.594 40.0895C81.5316 40.9245 82.0003 42.0598 82.0003 43.4954C82.0003 44.9384 81.5279 46.0883 80.583 46.9453C79.6381 47.8023 78.349 48.2454 76.7156 48.2747H70.585V32.2778H80.4182V34.0138ZM72.7054 40.54V46.5498H76.5618C77.6092 46.5498 78.4223 46.2715 79.0009 45.7148C79.5869 45.1581 79.8799 44.411 79.8799 43.4735C79.8799 42.5725 79.5979 41.8621 79.0339 41.342C78.4772 40.822 77.6825 40.5546 76.6497 40.54H72.7054Z" fill="#009142"/>
    <path d="M86.7467 48.2747H84.7141V36.3869H86.7467V48.2747ZM84.5493 33.2337C84.5493 32.9041 84.6482 32.6258 84.8459 32.3987C85.051 32.1716 85.3513 32.0581 85.7469 32.0581C86.1424 32.0581 86.4427 32.1716 86.6478 32.3987C86.8529 32.6258 86.9554 32.9041 86.9554 33.2337C86.9554 33.5633 86.8529 33.838 86.6478 34.0577C86.4427 34.2775 86.1424 34.3873 85.7469 34.3873C85.3513 34.3873 85.051 34.2775 84.8459 34.0577C84.6482 33.838 84.5493 33.5633 84.5493 33.2337Z" fill="#009142"/>
    <path d="M99.7551 36.3869V48.2747H97.7116V38.0679H93.6684L93.4267 42.5176C93.2948 44.5612 92.9506 46.0224 92.3939 46.9014C91.8446 47.7803 90.9693 48.2381 89.768 48.2747H88.955V46.4839L89.5373 46.4399C90.1965 46.3667 90.669 45.9858 90.9546 45.2973C91.2403 44.6088 91.4234 43.3343 91.504 41.4739L91.7237 36.3869H99.7551Z" fill="#009142"/>
    <path d="M102.919 46.6157L103.623 45.7478C104.414 44.7223 104.864 43.1842 104.974 41.1333L105.161 36.3869H112.819V46.6157H114.346V51.7686H112.313V48.2747H104.018V51.7686H101.985L101.996 46.6157H102.919ZM105.325 46.6157H110.786V38.2657H107.127L107.006 41.1003C106.882 43.4661 106.322 45.3046 105.325 46.6157Z" fill="#009142"/>
    <path d="M125.223 32.2778L130.452 45.3303L135.682 32.2778H138.418V48.2747H136.308V42.0452L136.506 35.3212L131.254 48.2747H129.639L124.399 35.3542L124.607 42.0452V48.2747H122.498V32.2778H125.223Z" fill="#009142"/>
    <path d="M149.163 48.2747C149.046 48.0404 148.951 47.6229 148.877 47.0222C147.933 48.0037 146.805 48.4945 145.493 48.4945C144.322 48.4945 143.358 48.1649 142.604 47.5057C141.857 46.8391 141.483 45.9968 141.483 44.9787C141.483 43.7408 141.952 42.7813 142.89 42.1001C143.834 41.4116 145.16 41.0673 146.867 41.0673H148.844V40.1335C148.844 39.423 148.632 38.859 148.207 38.4415C147.782 38.0167 147.156 37.8042 146.328 37.8042C145.603 37.8042 144.995 37.9874 144.505 38.3536C144.014 38.7198 143.769 39.163 143.769 39.683H141.725C141.725 39.0897 141.934 38.5184 142.351 37.969C142.776 37.4124 143.347 36.9729 144.065 36.6506C144.79 36.3283 145.585 36.1672 146.449 36.1672C147.819 36.1672 148.892 36.5115 149.669 37.2C150.445 37.8812 150.848 38.8224 150.877 40.0236V45.4951C150.877 46.5864 151.016 47.4544 151.295 48.0989V48.2747H149.163ZM145.79 46.7256C146.427 46.7256 147.032 46.5608 147.603 46.2312C148.174 45.9016 148.588 45.4731 148.844 44.9457V42.5066H147.251C144.761 42.5066 143.516 43.2354 143.516 44.693C143.516 45.3303 143.728 45.8283 144.153 46.1872C144.578 46.5461 145.124 46.7256 145.79 46.7256Z" fill="#009142"/>
    <path d="M164.105 42.4627C164.105 44.2719 163.691 45.7294 162.864 46.8355C162.036 47.9415 160.915 48.4945 159.502 48.4945C158.059 48.4945 156.924 48.0367 156.096 47.1211V52.8453H154.063V36.3869H155.92L156.019 37.7054C156.847 36.6799 157.997 36.1672 159.469 36.1672C160.897 36.1672 162.025 36.7056 162.853 37.7823C163.688 38.859 164.105 40.3569 164.105 42.2759V42.4627ZM162.073 42.232C162.073 40.8916 161.787 39.8332 161.216 39.0567C160.644 38.2803 159.861 37.8921 158.865 37.8921C157.634 37.8921 156.711 38.4378 156.096 39.5292V45.2094C156.704 46.2934 157.634 46.8355 158.887 46.8355C159.861 46.8355 160.633 46.4509 161.205 45.6818C161.783 44.9054 162.073 43.7555 162.073 42.232Z" fill="#009142"/>
    <path d="M170.401 43.2098H168.918V48.2747H166.874V36.3869H168.918V41.4189H170.247L174.246 36.3869H176.707L172.005 42.1001L177.103 48.2747H174.521L170.401 43.2098Z" fill="#009142"/>
    <path d="M183.607 48.4945C181.996 48.4945 180.684 47.9671 179.674 46.9124C178.663 45.8503 178.157 44.433 178.157 42.6604V42.2869C178.157 41.1076 178.381 40.0566 178.828 39.1337C179.282 38.2034 179.912 37.4783 180.717 36.9583C181.53 36.4309 182.409 36.1672 183.354 36.1672C184.9 36.1672 186.101 36.6763 186.958 37.6944C187.815 38.7125 188.243 40.1701 188.243 42.0672V42.9131H180.19C180.219 44.0851 180.56 45.0336 181.212 45.7587C181.871 46.4766 182.706 46.8355 183.717 46.8355C184.435 46.8355 185.043 46.689 185.541 46.396C186.039 46.103 186.475 45.7148 186.848 45.2314L188.09 46.1982C187.093 47.7291 185.599 48.4945 183.607 48.4945ZM183.354 37.8372C182.534 37.8372 181.845 38.1375 181.289 38.7381C180.732 39.3314 180.388 40.1664 180.256 41.2431H186.211V41.0893C186.152 40.0566 185.874 39.2582 185.376 38.6942C184.878 38.1229 184.204 37.8372 183.354 37.8372Z" fill="#009142"/>
    <path d="M199.307 38.035H195.319V48.2747H193.286V38.035H189.375V36.3869H199.307V38.035Z" fill="#009142"/>
    <path d="M210.154 27.3511V32.2304C210.154 33.006 209.922 33.6211 209.458 34.0758C208.997 34.5271 208.382 34.7528 207.613 34.7528C206.834 34.7528 206.216 34.5304 205.758 34.0858C205.3 33.6378 205.071 33.0177 205.071 32.2253V27.3511H206.249V32.2354C206.249 32.7235 206.364 33.0962 206.594 33.3537C206.825 33.6111 207.164 33.7398 207.613 33.7398C208.522 33.7398 208.977 33.2249 208.977 32.1953V27.3511H210.154Z" fill="#009142"/>
    <path d="M215.125 32.9525H212.49L211.939 34.6525H210.71L213.279 27.3511H214.34L216.914 34.6525H215.681L215.125 32.9525ZM212.822 31.9295H214.793L213.807 28.9006L212.822 31.9295Z" fill="#009142"/>
    <path fill-rule="evenodd" clip-rule="evenodd" d="M21.5259 0.986328L21.8904 1.21716L21.3945 2.00024L21.1146 1.11657L21.5259 0.986328ZM30.6636 52.9806V9.32288C30.6636 8.78545 30.4047 8.28852 30.1477 7.90595C29.8728 7.4966 29.5008 7.07518 29.0887 6.66299C28.2618 5.83612 27.1795 4.95453 26.1244 4.1573C25.0639 3.35606 24.0065 2.62184 23.216 2.08904C22.8203 1.82226 22.4902 1.60513 22.2585 1.45436C22.1426 1.37896 22.0513 1.3201 21.9886 1.27988C21.9573 1.25977 21.9331 1.24432 21.9165 1.23378L21.8975 1.22169L21.8911 1.21758L21.8906 1.21731C21.8905 1.21723 21.8904 1.21716 21.3945 2.00024C21.1146 1.11657 21.1145 1.11661 21.1143 1.11666L21.0652 1.13229C21.0331 1.14253 20.9857 1.15766 20.924 1.17745C20.8006 1.21701 20.6202 1.27516 20.3907 1.34982C19.9319 1.49912 19.2771 1.71449 18.4915 1.97927C16.9212 2.5085 14.8243 3.23655 12.7246 4.02975C10.631 4.82069 8.50987 5.68562 6.90239 6.48936C6.10336 6.88888 5.39474 7.29112 4.87338 7.67924C4.61422 7.87217 4.36758 8.0862 4.17735 8.32082C3.99887 8.54095 3.78305 8.88581 3.78305 9.32288V49.3656H1.92922C1.55388 49.3656 1.16225 49.4422 0.823237 49.6791C0.475148 49.9224 0.292821 50.2573 0.198143 50.5624C0.108588 50.851 0.0853654 51.1504 0.0773285 51.3963C0.0717286 51.5677 0.0731097 51.7619 0.0743756 51.94C0.0748901 52.0123 0.0753856 52.082 0.0753856 52.1464C0.0753856 52.2108 0.0748901 52.2805 0.0743756 52.3528C0.0731097 52.5309 0.0717286 52.7251 0.0773285 52.8965C0.0853654 53.1424 0.108588 53.4418 0.198143 53.7304C0.292821 54.0355 0.475148 54.3704 0.823237 54.6137C1.16225 54.8506 1.55388 54.9271 1.92922 54.9271H57.3588C57.7685 54.9271 58.1805 54.8637 58.5392 54.6592C58.9289 54.437 59.1583 54.1047 59.2779 53.7578C59.3858 53.4448 59.4034 53.123 59.4066 52.8783C59.4083 52.7496 59.4058 52.6185 59.4033 52.4993C59.4006 52.3754 59.398 52.2619 59.398 52.1464C59.398 52.0309 59.4006 51.9174 59.4033 51.7935C59.4058 51.6743 59.4083 51.5432 59.4066 51.4145C59.4034 51.1698 59.3858 50.8479 59.2779 50.535C59.1583 50.1881 58.9289 49.8558 58.5392 49.6336C58.1805 49.4291 57.7685 49.3656 57.3588 49.3656H55.6904V21.1874C55.6904 20.7116 55.5097 20.2476 55.3062 19.8581C55.0937 19.4512 54.8042 19.0291 54.4813 18.6139C53.8346 17.7824 52.9886 16.8965 52.1651 16.0965C51.3374 15.2925 50.5124 14.556 49.8959 14.0217C49.5872 13.7541 49.3296 13.5363 49.1487 13.3849C49.0582 13.3092 48.9868 13.25 48.9377 13.2095C48.9131 13.1893 48.8941 13.1737 48.8811 13.163L48.8661 13.1507L48.8605 13.1462C48.8604 13.1461 48.8603 13.146 48.275 13.8648L48.8603 13.146L48.4343 12.7991L47.9255 13.0063L48.275 13.8648C47.9255 13.0063 47.9254 13.0063 47.9252 13.0064L47.9247 13.0066L47.8864 13.0223C47.8612 13.0326 47.8241 13.0478 47.7759 13.0677C47.6795 13.1074 47.5387 13.1658 47.3597 13.2407C47.0018 13.3904 46.4912 13.6063 45.8789 13.8717C44.6551 14.4019 43.0199 15.1319 41.3816 15.9276C39.7496 16.7203 38.0881 17.591 36.8246 18.4032C36.1964 18.8071 35.6324 19.218 35.2149 19.6177C35.0061 19.8175 34.8095 20.0374 34.6599 20.2747C34.5144 20.5054 34.3713 20.819 34.3713 21.1874V52.9806H30.6636ZM28.8098 53.0733V9.32288C28.8098 9.32851 28.8097 9.32825 28.8079 9.32175C28.8009 9.29637 28.7674 9.1758 28.6088 8.93956C28.4275 8.66966 28.1477 8.34375 27.7778 7.97385C27.0405 7.23656 26.0372 6.41493 25.0068 5.63641C23.9817 4.86189 22.9536 4.1478 22.1798 3.62624C21.801 3.37086 21.4843 3.16245 21.2604 3.01667C21.174 3.0446 21.075 3.07668 20.9644 3.11267C20.5107 3.26028 19.8621 3.4736 19.0836 3.73601C17.5255 4.26114 15.4513 4.9814 13.3798 5.76396C11.3023 6.54877 9.25231 7.38705 7.73145 8.14748C6.96631 8.53005 6.37145 8.87514 5.98038 9.16627C5.80456 9.29716 5.69659 9.39771 5.63688 9.46531V51.2195H1.94744C1.93998 51.276 1.93357 51.353 1.93017 51.4569C1.92581 51.5905 1.92679 51.7233 1.92797 51.8809C1.92857 51.9617 1.92922 52.0491 1.92922 52.1464C1.92922 52.2437 1.92857 52.3311 1.92797 52.4119C1.92679 52.5695 1.92581 52.7023 1.93017 52.8359C1.93357 52.9398 1.93998 53.0168 1.94744 53.0733H28.8098ZM5.59239 9.52297C5.59218 9.523 5.59356 9.52039 5.59716 9.51509C5.59439 9.5203 5.59259 9.52295 5.59239 9.52297ZM36.2251 53.0733H57.3588C57.4401 53.0733 57.4997 53.0686 57.5419 53.063C57.5472 53.0161 57.5517 52.9488 57.553 52.8541C57.5542 52.7612 57.5524 52.6599 57.5498 52.5383C57.5474 52.4214 57.5442 52.2858 57.5442 52.1464C57.5442 52.0193 57.5468 51.8953 57.5492 51.7857L57.5498 51.7545C57.5524 51.6329 57.5542 51.5316 57.553 51.4387C57.5517 51.344 57.5472 51.2767 57.5419 51.2298C57.4997 51.2242 57.4401 51.2195 57.3588 51.2195H53.8365V21.1874C53.8365 21.1534 53.8144 21.0062 53.6631 20.7165C53.5208 20.4441 53.3033 20.1189 53.018 19.752C52.4481 19.0193 51.672 18.202 50.8734 17.4262C50.0789 16.6545 49.2818 15.9427 48.6818 15.4226C48.4614 15.2316 48.2682 15.067 48.1122 14.9354C48.1 14.9405 48.0877 14.9456 48.0752 14.9509C47.7234 15.098 47.2201 15.3108 46.616 15.5727C45.4065 16.0967 43.7975 16.8151 42.1916 17.5951C40.5794 18.3782 38.9967 19.2108 37.8271 19.9626C37.2387 20.3409 36.7888 20.6773 36.4967 20.9569C36.3507 21.0967 36.2684 21.1994 36.228 21.2635C36.227 21.2651 36.226 21.2666 36.2251 21.2681V53.0733ZM36.2074 21.3006C36.2073 21.3006 36.2078 21.2994 36.2089 21.297C36.208 21.2993 36.2075 21.3006 36.2074 21.3006Z" fill="#009142"/>
    <path fill-rule="evenodd" clip-rule="evenodd" d="M20.4678 47.5116V2H22.3216V47.5116H20.4678Z" fill="#009142"/>
    <path fill-rule="evenodd" clip-rule="evenodd" d="M14.3442 11.0091L7.85575 13.7899L7.12549 12.0859L13.6139 9.30518L14.3442 11.0091Z" fill="#009142"/>
    <path fill-rule="evenodd" clip-rule="evenodd" d="M14.3442 16.4779L7.85575 19.2586L7.12549 17.5547L13.6139 14.7739L14.3442 16.4779Z" fill="#009142"/>
    <path fill-rule="evenodd" clip-rule="evenodd" d="M14.3442 21.0199L7.85575 23.8006L7.12549 22.0967L13.6139 19.3159L14.3442 21.0199Z" fill="#009142"/>
    <path fill-rule="evenodd" clip-rule="evenodd" d="M14.3342 25.6585L7.84577 28.3465L7.13623 26.6339L13.6246 23.9458L14.3342 25.6585Z" fill="#009142"/>
    <path fill-rule="evenodd" clip-rule="evenodd" d="M14.3342 31.1277L7.84577 33.8158L7.13623 32.1031L13.6246 29.415L14.3342 31.1277Z" fill="#009142"/>
    <path fill-rule="evenodd" clip-rule="evenodd" d="M14.3342 35.6692L7.84577 38.3573L7.13623 36.6446L13.6246 33.9565L14.3342 35.6692Z" fill="#009142"/>
    <path fill-rule="evenodd" clip-rule="evenodd" d="M14.3342 41.1385L7.84577 43.8265L7.13623 42.1138L13.6246 39.4258L14.3342 41.1385Z" fill="#009142"/>
    <path fill-rule="evenodd" clip-rule="evenodd" d="M14.3342 45.68L7.84577 48.368L7.13623 46.6553L13.6246 43.9673L14.3342 45.68Z" fill="#009142"/>
    <path fill-rule="evenodd" clip-rule="evenodd" d="M18.907 9.2753L16.1263 10.2022L15.54 8.44352L18.3208 7.5166L18.907 9.2753Z" fill="#009142"/>
    <path fill-rule="evenodd" clip-rule="evenodd" d="M18.907 14.7441L16.1263 15.671L15.54 13.9123L18.3208 12.9854L18.907 14.7441Z" fill="#009142"/>
    <path fill-rule="evenodd" clip-rule="evenodd" d="M18.907 19.286L16.1263 20.213L15.54 18.4543L18.3208 17.5273L18.907 19.286Z" fill="#009142"/>
    <path fill-rule="evenodd" clip-rule="evenodd" d="M18.907 23.828L16.1263 24.755L15.54 22.9963L18.3208 22.0693L18.907 23.828Z" fill="#009142"/>
    <path fill-rule="evenodd" clip-rule="evenodd" d="M18.907 29.2968L16.1263 30.2237L15.54 28.465L18.3208 27.5381L18.907 29.2968Z" fill="#009142"/>
    <path fill-rule="evenodd" clip-rule="evenodd" d="M18.907 33.8388L16.1263 34.7657L15.54 33.007L18.3208 32.0801L18.907 33.8388Z" fill="#009142"/>
    <path fill-rule="evenodd" clip-rule="evenodd" d="M18.907 39.3075L16.1263 40.2344L15.54 38.4757L18.3208 37.5488L18.907 39.3075Z" fill="#009142"/>
    <path fill-rule="evenodd" clip-rule="evenodd" d="M18.907 43.8495L16.1263 44.7764L15.54 43.0177L18.3208 42.0908L18.907 43.8495Z" fill="#009142"/>
    <path fill-rule="evenodd" clip-rule="evenodd" d="M47.3481 47.5118V13.8647H49.202V47.5118H47.3481Z" fill="#009142"/>
    <path fill-rule="evenodd" clip-rule="evenodd" d="M44.9325 21.9466L38.4441 24.7274L37.7139 23.0234L44.2023 20.2427L44.9325 21.9466Z" fill="#009142"/>
    <path fill-rule="evenodd" clip-rule="evenodd" d="M44.9325 26.4886L38.4441 29.2694L37.7139 27.5654L44.2023 24.7847L44.9325 26.4886Z" fill="#009142"/>
    <path fill-rule="evenodd" clip-rule="evenodd" d="M44.9221 31.1277L38.4337 33.8158L37.7241 32.1031L44.2125 29.415L44.9221 31.1277Z" fill="#009142"/>
    <path fill-rule="evenodd" clip-rule="evenodd" d="M44.9325 36.4994L38.4441 39.2801L37.7139 37.5762L44.2023 34.7954L44.9325 36.4994Z" fill="#009142"/>
    <path fill-rule="evenodd" clip-rule="evenodd" d="M44.9221 41.1385L38.4337 43.8265L37.7241 42.1138L44.2125 39.4258L44.9221 41.1385Z" fill="#009142"/>
</svg>