<svg xmlns="http://www.w3.org/2000/svg" width="724" height="483" viewBox="0 0 724 483" fill="none">
    <path d="M312.753 408.69L312.096 409.245L310.935 410.507L310.279 411.062L309.723 411.214L309.117 411.315L308.612 411.517L308.41 412.072L308.107 412.627L307.299 413.284L305.28 414.394L308.36 413.082L312.399 410.103L321.639 401.319L319.064 402.834L312.753 408.69ZM438.867 389.456L438.362 388.749L436.544 388.901L436.14 388.497L435.736 387.891L434.777 387.992L433.111 388.749L431.848 387.79L430.637 387.739L427.859 388.295L422.103 387.487L421.75 387.083H421.548L421.245 387.437L438.16 390.213L438.867 389.456ZM399.23 380.52L393.979 379.258L381.053 376.078L379.437 375.119L378.477 373.907L377.872 372.191L377.215 369.717L376.508 369.414V370.474L376.862 371.938L377.165 372.847L378.276 374.614L379.538 375.775L385.849 378.198L400.492 381.328L402.159 382.136L403.068 382.338L402.563 381.934L399.23 380.52ZM723.546 191.43L721.677 189.209L720.112 186.735L719.254 184.917L719.001 182.949L719.759 180.929L720.465 180.273L722.031 179.364L722.637 178.506L722.839 177.244L722.233 176.588L718.294 175.528H717.486L716.527 175.881L714.154 178.304L713.144 178.91L711.932 179.364L710.72 179.617L709.609 179.566L708.802 179.213L706.731 177.194L705.116 176.436L703.702 176.033L702.49 175.174L701.48 173.054L700.874 170.379L700.42 168.965L699.915 168.309L697.542 168.056L696.784 167.703L695.32 166.744L693.805 167.047L692.24 167.804L690.675 168.157L689.16 167.804L687.999 167.047L687.09 165.785L684.868 159.979L683.808 159.07L682.242 159.626L681.536 160.433L680.273 162.352L679.516 163.008L678.859 163.21L675.072 163.462L674.012 162.402L673.002 160.888L671.639 159.626L667.448 158.414L665.024 156.647L664.772 156.395L664.57 155.84L664.469 154.83L664.115 153.618V153.467L664.014 153.618L663.055 153.972L662.702 154.224L662.348 154.376L660.379 154.022L657.45 154.577L655.986 154.022L655.027 153.366L654.32 153.063L652.553 152.861L651.745 152.508L651.29 151.801L650.078 148.217L649.523 147.51L648.766 147.409L647.655 147.611L645.08 147.409L644.423 147.56L644.019 149.428L644.322 152.306L644.12 155.032L642.202 156.344L641.798 156.243L641.091 155.739L640.636 155.638L640.131 155.789L637.455 157.505L637.253 157.152V156.193L636.647 155.082L636.597 154.981L635.284 152.71L634.072 151.145L632.709 149.933L631.144 148.923L627.963 147.459L626.549 146.45L622.711 140.493L621.298 139.079L620.995 138.676L620.944 138.019L621.045 137.363L621.449 135.848L621.348 133.223L620.086 131.86L616.551 130.144L615.895 128.478L615.339 126.408L614.733 124.793L613.926 124.338L609.886 124.894L608.725 125.399L606.352 127.822L605.14 128.73L599.333 130.447L596.455 129.993L593.779 130.194L591.153 131.154L584.488 135.091L583.983 135.596L583.63 136.151L582.973 137.514L582.62 138.019L581.863 138.524L580.954 138.625L580.045 138.474L579.187 138.12L578.581 137.615L578.48 137.06L578.581 136.454L578.53 135.142L578.631 134.889L578.53 134.738L577.924 134.334L577.571 134.183L576.308 133.88L575.198 133.072L574.289 132.87L573.481 132.365L573.077 132.214H572.572L572.269 132.365L571.461 133.173L570.552 133.779L569.593 134.183L568.634 134.233L567.725 133.779L563.736 127.367L562.574 126.812L562.271 125.651L561.161 125.045L554.193 124.49L550.406 124.944L549.699 125.197L549.143 125.651L548.335 126.762L547.881 127.216L547.528 127.367H546.77L546.417 127.519L545.76 128.327L545.306 129.134L544.75 129.791L543.791 130.093L542.933 130.043L542.125 129.791L541.317 129.387L540.56 128.831L539.701 127.822L539.449 126.863L539.398 125.752L539.095 124.288L538.54 123.228L537.833 122.622L536.975 122.319L536.116 122.168L534.753 121.612L533.894 120.047L531.976 112.425L531.925 111.617L532.531 110.86L535.662 109.446L534.702 108.235L534.652 106.872L534.803 105.307L534.45 103.54L534.096 102.934L533.642 102.53L532.632 101.924L532.077 101.369L532.026 100.713L532.127 99.9554L532.026 99.0467L531.673 98.239L530.865 97.1284L530.562 96.3207L530.511 95.3615L530.612 94.5538L530.562 93.7965L530.057 92.9383L529.552 92.6354L528.593 92.4335L528.239 92.0296L528.138 91.4239V89.7075L527.987 89.0007L530.208 88.5464L530.764 87.9911L531.117 86.8804L530.764 86.1737L530.057 85.7698L529.249 85.5174L527.886 85.4164L525.159 86.0727L523.796 85.9717L522.635 84.8107L521.827 82.6904L520.867 76.8344L520.564 75.9257L520.059 75.2694L519.302 74.9666L518.444 75.118L517.636 75.4714L516.878 75.6228L516.121 75.118L515.364 74.7646L514.758 74.8151L512.889 75.9762L509.607 77.3897L506.83 78.046L503.902 77.8441L503.195 77.5916L502.639 77.0363L502.235 76.0772L502.033 75.0675L501.781 74.2093L501.226 73.6035L500.014 73.4521L497.439 73.9064L496.126 73.4016L493.248 72.3919L491.733 72.1395L490.319 72.4929L488.804 73.755L488.097 74.0579L487.138 73.8559L484.26 72.5939L486.583 70.9784L488.198 69.262L489.208 67.0913L488.855 64.9205L488.047 65.3749H487.391L486.684 65.2234L486.027 64.9205L485.421 64.5167L484.613 63.7594L484.21 63.2041L484.058 62.6488L484.26 62.2954L485.169 62.0935L485.421 61.5382L485.522 60.8819L485.421 60.3266L485.27 59.7713L485.219 59.115L485.32 58.5093L485.674 57.3482L485.775 56.6919L485.674 55.2784L485.371 54.1678L484.815 53.2591L483.149 51.3407L482.846 50.8359L482.695 50.2301L482.493 48.9176L482.341 48.4632L481.786 48.1098L480.372 47.706L479.918 47.0497L480.322 45.5352L481.887 44.6266L488.703 43.0111L491.077 43.0616L491.834 42.8597L493.349 41.0423L493.298 38.3667L492.187 35.7921L490.622 34.2272L489.814 33.6718L488.501 32.1574L487.794 31.6525H487.34L486.583 32.0059L486.128 31.804V31.6525L485.977 30.7439L485.876 30.441L485.623 30.1886L485.068 29.8352L484.815 29.6332L483.301 27.6644L482.493 27.0586H480.473V26.5033L480.776 25.5442L480.624 24.4335L479.766 23.0705L479.261 21.9599L479.009 20.6978L478.908 18.5776L478.756 17.467V17.1136L479.463 15.6496V14.8923L479.362 14.2866L479.11 13.6808L478.706 12.9235L478.049 11.8634L477.393 11.1062L474.818 9.33927L474.262 8.63251L473.253 6.41128L472.495 5.35115L470.829 4.29101L470.021 3.53378L469.415 2.37268L469.112 1.46399L468.658 0.858203L467.648 0.504825L465.83 0.454343L464.012 0.80772L460.478 2.47364L457.701 5.25018L456.842 5.35115L456.135 4.29101L456.388 1.81737L455.631 0.706755L455.025 1.06013L454.469 1.56496L453.914 1.96882L453.207 2.0193L452.601 1.71641L451.49 0.908686L450.783 0.757238H448.208L444.27 0L443.714 0.100965L443.058 0.555308L442.048 1.86785L441.543 2.37268L440.786 2.67557L440.382 2.92799L439.927 3.83667L439.624 4.19005L439.271 4.29101L438.766 3.98812L438.413 3.93764L437.706 4.29101L433.565 7.97624L432.858 8.3801L432.151 8.27913L430.94 7.31997L430.283 6.96659H429.122L426.749 7.57238H425.537L417.609 3.38233L415.691 3.98812L412.207 2.67557L410.591 3.02895L410.035 5.25018L410.237 5.95694L410.995 7.31997L411.146 7.87527L410.894 8.63251L410.439 9.03637L409.935 9.33927L409.531 9.74313L409.177 10.9042L408.672 14.8419L407.511 17.366L405.744 18.7795L400.189 21.4046L399.432 21.4551L397.008 20.7988L395.544 20.9502L393.423 22.0104L392.767 22.1618L392.01 21.7075L391.858 20.6978V19.4863L391.656 18.4261L390.747 17.5174L389.434 17.265L386.96 17.467L382.365 17.7194L375.347 16.3563H371.661L368.48 17.6689L367.622 18.6785L367.016 19.9911L366.359 21.1017L365.45 21.5056L364.491 21.1522L362.623 19.5872L361.663 19.0319L360.098 18.83L354.594 19.1834L353.585 19.4863L352.995 20.193L353.248 21.3036L353.046 21.6065L352.945 21.9094L352.844 22.2123L352.692 22.5657L353.854 22.7171L354.308 23.6258L353.955 24.484L352.894 24.5345L352.642 24.1811L352.39 24.0802L352.137 24.1811L351.767 24.4335L351.464 24.8374L351.38 25.2413V25.7461L351.026 26.3014L350.572 26.8062L350.067 27.2101L349.511 27.5635L348.401 28.0178V28.2197L348.502 28.6236L348.704 28.876V29.3303L348.148 30.0876L347.795 30.4914L347.441 30.6429L346.229 30.5419L345.926 30.6429L345.775 31.0468V31.6525L345.674 32.2079L344.866 32.6622L344.614 33.0661L344.412 33.5204L344.21 33.7223L344.109 33.9243L343.25 35.0854L342.998 35.5397L342.846 35.7416V35.994L343.149 36.5998L343.2 37.6095L342.493 38.3667L341.584 38.9725L341.079 39.5278L341.887 39.9317L342.19 39.9822V40.487L341.736 40.9918L341.584 41.7491L341.534 42.5568L341.281 43.1626L340.827 43.3645L339.564 43.415L339.059 43.5664L339.312 44.4246L338.857 45.7877L339.11 46.6963L338.807 46.9487L338.504 47.4536L338.302 47.605L338.403 47.8574L338.554 48.4632L338.05 48.6652L336.888 49.7253V50.1796L337.646 50.8359L337.999 51.0378V51.4417L337.696 51.5427L337.545 51.6436L337.393 51.7951L337.191 51.9465V52.3504L337.646 52.9562L338.958 53.36L339.615 53.7134L339.312 54.4202L339.11 54.7231L338.756 55.026L339.261 55.3793L339.665 55.7832L339.817 56.288L339.564 56.7928L339.766 57.5501L340.069 58.0549L340.423 58.3073L340.827 58.5093V58.9636L340.271 58.8626L339.817 59.0141L339.514 59.4684L339.413 60.2761L339.564 61.0334L339.867 61.1848H340.271L340.776 61.5382L340.978 61.9421L341.382 63.7594L341.584 64.1128L341.887 64.5167L341.938 64.8196L341.433 65.0215L341.685 66.8389L340.574 68L339.362 68.9087L339.261 69.8678L338.554 71.1299L338.453 71.2813L338.403 72.7958L338.201 73.1997L337.747 73.3006L337.444 72.6948L336.989 72.19L336.484 71.8366L335.929 71.6852L335.373 71.7357L334.768 71.5337L333.859 70.1707L333.253 69.6154L332.697 69.464H331.485L330.88 69.262L330.324 68.7572L329.112 67.1922L328.809 66.536L328.91 66.4855L329.264 65.1729L329.314 64.6681V64.0118L329.264 63.507L329.163 63.1032L328.759 62.8003L328.254 62.2954L326.234 61.2858L325.679 60.68L324.164 58.6102L323.053 57.752L321.892 57.4491L316.287 57.6006L315.378 57.9035L312.955 59.1655H312.45L311.793 58.7112L311.372 58.6607L310.868 59.0141L310.211 60.2257L309.807 60.68L309.1 60.8819L305.465 60.2761L304.96 59.5694L304.606 58.6102L303.95 57.4491L303.243 56.9443L302.385 56.8433L301.476 56.9948L300.668 57.2977L299.86 58.0549L299.456 58.7617L298.85 59.4684L297.908 59.8218L296.847 59.9228L296.292 60.2257L295.888 60.9829L295.333 62.5478L294.727 63.608H293.919L292.152 62.9012L291.243 63.2041L289.677 64.5672L288.87 64.87L287.961 64.3652L287.456 63.2041L287.102 61.7906L286.648 60.5286L285.84 59.5694L285.184 59.0646L284.931 58.3578L285.285 56.6919L285.133 55.026L284.679 53.9658L283.315 51.9465L282.457 49.6243L281.952 48.8166L280.993 48.2108L279.377 47.807L278.569 47.8574L277.761 48.1603L276.953 48.9681L275.994 50.9874L275.236 51.8456L274.176 52.2494H271.702L270.541 52.5018L269.278 53.2086L268.016 54.2182L266.905 55.5813L266.097 57.3482L265.996 58.4083L266.097 60.8314L265.895 61.7906L265.188 62.5983L264.784 61.9421L264.481 60.7305L264.179 59.9228L263.674 59.8723L263.118 60.2257L262.563 60.4781L261.906 60.1752L261.502 59.5189L261.25 58.6102L260.644 55.026L260.543 53.7134L260.19 52.8552L259.129 52.4513L255.544 51.6941H254.433L253.373 52.0475L251.353 53.4105L250.293 54.4202L249.788 54.7231L249.283 54.5211L249.031 54.0163L248.576 52.2494L248.324 51.5931L247.819 51.0378L246.658 50.3311L246.153 49.8263L245.799 49.1195L245.749 48.5137V47.9584L245.597 47.3021L244.991 46.6459L244.183 46.5954L243.274 47.0497L242.416 47.807L241.608 49.0185L240.295 51.4922L239.336 52.3504L238.579 52.6533H234.64L233.883 52.4513L233.125 52.0475L230.702 49.4224L229.843 48.9681L228.935 49.1195L228.177 49.8263L227.672 50.8864L227.42 52.1989V53.0067L227.47 53.7639L227.521 54.4706L227.319 55.3289L227.117 55.7327L225.249 58.2568L224.845 58.6607L224.188 58.7617L223.633 58.5093L222.976 58.0044L222.421 57.3986L222.168 56.8938L223.481 53.6629L223.784 52.0475L223.279 50.6845L222.623 50.3311L220.351 50.2806L216.008 48.5137L214.595 48.4632L213.837 48.8671L212.726 50.0787L211.868 50.533L211.06 50.5835L208.687 50.1796L207.071 50.6845L206.213 50.7854L205.657 50.2806L205.91 49.17L206.516 47.7565L206.617 46.6459L205.455 46.343L204.496 46.4439L203.688 46.343L203.133 45.7877L202.83 44.5256V42.8092L202.931 41.4462L202.678 40.4365L201.618 39.8307L199.952 39.4773L196.417 39.3259L192.378 40.7394L189.702 40.2851L182.077 36.9027L173.241 36.5998L172.686 36.2969L172.181 35.5902L172.08 34.9844L172.181 34.3786V33.9243L171.726 33.6718L162.385 33.268L161.173 32.7127L158.598 30.3905L157.386 30.1381L154.609 30.239L146.025 28.6236L142.642 29.2799L129.312 29.0779L122.546 27.2606L120.728 27.311L118.911 27.9168L115.326 29.8352L104.066 31.6525L103.207 31.6021L100.733 30.9963L90.7356 31.804L89.8773 32.1069L89.0189 33.0156L87.5546 35.1863L86.9487 36.4484L85.9893 40.6889L84.8785 42.3044L80.3341 45.4343L74.3255 50.8359L72.7097 51.0883L71.5483 50.0282L70.4375 48.6652L68.8217 48.0089L67.8119 47.9079L64.9843 47.0497H64.0754L60.137 48.0594L59.632 48.3118L59.2281 48.7661L58.7232 49.6243L58.6727 50.1292L58.9251 50.634L60.036 53.7134L60.137 54.3192L59.935 55.3289L59.5816 55.5308L59.2281 55.2279L59.2786 55.6317L59.5311 56.5404L60.5914 56.9443L61.2983 57.1967L61.8537 57.6006L61.2478 58.9131L61.2983 59.317L62.9141 61.7401L63.217 62.4974L62.7626 62.6993L62.4596 63.1536L62.4092 63.8099L62.6616 64.6681L61.9042 64.971L61.1973 65.7283L60.6419 66.6874L60.4399 67.5456L60.6924 68.9087L61.2983 69.262H62.0557L62.7121 69.7164L64.9338 74.6132L65.8427 75.7238L67.8624 77.0363L69.7811 78.9547L70.2355 79.7119L69.5791 80.0653L69.4277 80.6711L70.0336 81.9331L71.0939 83.5486L71.4474 84.4068L71.9018 87.0824V87.4862L71.7503 87.9911L72.0533 88.2435L72.5582 88.4454L73.0631 88.7988L73.5176 89.455L73.6186 89.9599L73.6691 90.5152L73.871 91.3229L74.4769 92.3325L77.2036 94.8567L80.5361 96.7245L81.041 97.5322L80.5361 98.6429L79.3242 98.8953H78.0114L77.2036 99.2486L76.1432 98.6429L75.0324 98.7943L74.1235 99.5011L73.6186 100.612L73.6691 101.823L74.275 102.631L75.2343 103.085L76.3452 103.237V103.641L75.8402 104.751L76.3957 105.71L77.5065 106.367L78.5669 106.619L78.3144 108.083L78.6173 109.396L79.6272 111.869L78.7183 113.485L79.1223 116.463L79.3747 117.321L79.5767 117.523L79.5262 117.675L79.0213 118.382L78.2639 119.189L75.6888 120.552L75.5878 121.31L75.6383 122.521L75.5878 123.329L75.3858 123.985L74.4769 126.055L72.3562 126.964L65.0853 127.065L63.722 127.519L63.0151 127.872L62.4596 128.428L62.0052 129.336L61.4498 131.103L60.8944 131.911L57.7133 135.344L56.552 136.303L54.3808 137.969L52.563 139.382L43.3733 149.327L42.1615 151.195L40.6972 152.356L39.0815 154.123L34.7391 160.534L33.0728 162.251L32.8708 162.756L32.5679 164.018L32.3659 164.472L32.0125 164.825L31.3056 165.078L30.9521 165.33L30.5482 165.785L28.074 170.278L27.4176 170.984L26.9632 171.186L26.1048 171.388L25.6504 171.792L25.3474 172.347L24.6405 174.316L21.6109 178.405L20.6011 180.778L21.3585 182.999L21.6109 183.908L21.8634 186.533L22.0149 187.24L22.1159 187.593L22.6208 188.451L23.4792 189.36L23.7316 189.814L23.8831 190.773L24.4385 196.428L24.2871 197.336L23.6306 199.204L23.0752 201.375L22.4188 202.687L22.2168 203.445L22.4693 203.747L22.6713 203.596L23.2267 202.94L23.8326 203.394H23.7821L23.6306 203.445L24.9435 204.353L26.1048 205.918L26.8622 206.474L28.6799 207.483L29.1849 208.089V208.594L28.8314 209.805L28.7809 210.613L28.9324 211.168L29.5888 212.279L29.7403 212.582L29.2858 213.541L28.478 213.188L27.5691 212.38L26.8622 212.027L26.4078 211.875L25.6504 210.815L25.2464 210.411L24.792 210.344L23.8831 210.647L22.4188 210.546L21.5604 210.647L20.7021 210.546L19.6922 209.89L18.1774 208.224L17.3695 207.971L16.5112 208.779L16.2082 209.789L15.9052 211.202L15.7033 212.616V213.625L15.0974 214.181L13.5321 214.433L12.8252 214.988L11.9668 217.563L11.4619 218.623L11.4114 218.926V219.734L11.3104 220.087L10.9569 220.642L9.99758 221.45L9.59364 222.005L9.34118 222.763V223.217L9.39167 223.722L9.49265 225.792L9.39167 226.195L9.08871 226.902L8.73526 227.407L8.38181 227.71L8.07885 228.114L7.92738 228.921L7.97787 230.234L7.7254 231.496L7.22048 232.607L6.56407 233.465L6.05914 233.768L4.99879 234.121L4.49386 234.475L4.19091 234.878L3.78696 235.838L3.5345 236.292L0.908871 238.412L0.302957 239.371L0.201971 240.583L0.656407 243.006L0.504928 243.965L0.0504928 244.924L0 249.266L0.959364 249.417H1.06035L1.46429 248.963L2.77711 248.458L4.14041 248.66L5.55421 249.367L4.9483 251.184V252.143L6.05914 252.093L6.3621 252.143L6.66505 252.648V253.254L6.56407 253.961L6.61456 254.819L7.069 256.031L9.03822 259.06L9.29068 259.312L9.59364 259.362L9.8966 259.261L10.1996 259.009L10.351 258.959H10.654L11.4619 259.261L12.1183 259.413L12.7242 259.362L13.4816 258.959H13.6331L13.7845 259.009L13.936 259.06L16.9151 262.997L17.42 264.209L17.9755 266.127L18.6824 267.541L18.8843 267.793H18.9853L19.5407 267.49H22.4188L23.1762 267.238L23.8326 266.783L24.5395 266.581L25.1959 266.985L25.3474 267.288L26.8117 268.096L28.0235 269.206L28.5789 269.863L28.9829 270.671L29.2858 271.781L29.1344 272.387L28.8819 272.942L28.8314 273.901L28.1245 274.76L28.478 275.466L29.9423 276.678L30.7501 276.426L31.457 275.921L31.76 275.113L31.3561 273.851L31.7095 273.144L32.3154 273.094L33.0223 273.447L33.6282 273.901L34.2846 274.305L34.941 274.507L35.5975 274.406L37.3142 273.043L37.8696 272.034L38.7785 269.257L39.5864 268.045L40.3943 267.642L41.3031 267.793L44.0802 268.752L44.7871 269.257L46.4534 271.226L48.3721 272.841L49.281 273.901L49.584 274.002L49.8869 274.053H50.1899L50.4928 273.952H50.6948L53.3204 275.264L54.1283 275.214L54.4313 275.012L54.6837 274.709L54.8857 274.356L55.0877 273.952L55.4916 273.598L55.9461 273.447L57.4608 273.144L58.2182 273.397L60.7934 273.699L62.4596 274.255L63.419 274.356L66.1961 274.204L66.8525 274.558L68.9227 276.476L69.1752 277.385H70.0336L74.073 275.719L75.3353 275.769L75.9917 276.274L78.0114 276.829L78.8193 277.183L80.2836 278.596L80.9905 278.748L81.041 278.697L83.4142 279.606L84.2725 279.656L87.1001 278.192L89.0694 278.142L90.6346 276.779L91.5435 276.274H92.3009L94.5731 276.829L96.8453 276.779L97.6027 276.981L99.4709 278.091L100.481 278.899L101.087 279.707L101.339 280.666L101.39 281.474L101.592 282.231L102.298 283.039L103.662 283.897L106.893 285.159L107.449 285.664L107.954 286.371L109.317 288.794L110.276 290.258L111.034 290.763L115.78 289.955L118.305 288.844L119.971 287.229L123.859 280.767L125.576 279.555L145.318 277.435L147.944 276.375L150.065 276.123L151.277 275.567L151.933 275.416L153.852 275.618L156.427 274.861L160.315 274.81L162.233 273.952L162.637 273.346L163.546 271.276L164.051 270.62L165.112 269.711L165.617 269.156L166.222 267.894L166.879 266.026L167.283 264.108L167.232 262.745L167.535 260.776L167.838 260.927L168.596 260.978L169.353 260.776L170.666 260.12L171.322 259.918L173.241 259.817L173.897 259.665L178.947 258.555L180.158 257.949L180.209 257.444L180.36 256.687L180.815 255.98L182.128 255.122L182.33 254.314L182.582 253.809L183.39 254.112L183.945 254.718L184.4 255.475L184.905 256.132L185.662 256.485L186.47 256.434L186.924 256.031L187.076 255.223V254.062L186.874 252.901L186.622 252.194L186.571 251.639L186.975 251.033H187.227L187.884 251.285H188.187L188.54 250.932L188.641 250.477L188.793 250.124L189.247 249.973L190.56 250.578L191.873 251.689L193.287 252.547L194.801 252.295L195.205 251.891L195.508 251.941L195.761 252.093L196.215 252.042L196.72 252.143L196.922 251.992L196.872 251.689L196.72 251.336L196.67 251.083V250.679L196.569 250.175L196.619 249.72L197.074 249.569L197.477 249.72L198.336 250.225L202.628 251.841L203.941 251.891L205.455 251.083L207.879 248.054L209.343 247.297L210.101 247.499L211.262 248.559L211.817 248.761L212.474 248.408L214.898 246.338L215.806 245.076H217.473L217.927 244.975L218.987 244.268L219.846 244.369L219.947 245.934L220.755 246.338L225.753 246.287L227.117 246.944L229.692 248.862L230.298 249.367L231.56 251.285L231.863 251.588L232.772 252.951L234.388 253.607L237.973 254.062L238.781 254.466L239.437 255.223L239.639 256.283L238.831 258.656L239.387 259.11L240.295 259.16L240.901 259.009L242.164 257.949L242.82 257.848L243.123 258.858L243.274 260.019L243.678 260.725L244.335 260.927L245.294 260.725L246.153 260.221L246.809 259.665L247.465 259.211L249.334 259.009L250.041 259.11L250.444 259.615L250.545 260.776L250.242 261.987L249.788 262.543L249.233 262.896L248.627 263.653L248.374 264.512L248.475 265.37L248.93 265.875L249.788 265.723L250.394 265.016L250.747 264.108L251.252 263.401L252.161 263.25L252.767 263.704L253.171 264.512L253.121 265.42L252.464 266.178L253.626 268.55L254.13 269.055L254.938 269.61L255.342 269.56L255.494 269.005V267.995L255.797 266.733L256.554 264.562L257.463 264.158L258.776 264.209L262.462 265.723L265.239 265.774L266.703 266.026L267.814 266.783L268.066 267.238L268.167 267.692L268.218 268.096L268.319 268.5L268.975 270.065L269.278 271.68L269.329 272.034L269.581 272.437L270.238 273.043L271.298 274.911L272.611 276.325L274.025 277.435L275.236 277.94L276.701 277.637L278.468 275.315L279.73 274.709H280.437L280.993 274.911L281.498 275.365L281.952 276.123L282.255 277.031L282.608 279.101L282.911 279.959L283.467 280.414L285.032 280.918L285.436 281.221L285.285 282.029L284.679 282.887L283.921 283.695L283.416 284.351L283.063 285.411V286.068L283.467 286.472L284.83 286.976L285.335 287.431L285.487 288.087L285.032 288.844L283.82 290.409L283.618 292.277L283.669 294.397L283.265 296.619L282.204 298.436L281.195 299.799L280.69 301.364L281.195 303.737L281.548 304.494L282.154 306.261L282.507 306.866L283.214 307.422L283.517 307.119L283.921 306.463L284.578 306.16L285.184 306.463L285.89 307.725L287.102 308.532L287.405 309.138L287.607 309.845L287.961 310.451L288.567 310.804L289.172 310.956L289.778 311.208L290.283 311.965L290.485 312.874V313.732L290.586 314.59L291.142 315.499L291.697 316.004L292.303 316.307L292.959 316.357L293.616 316.155L294.323 315.499L294.878 314.742L295.08 313.833L295.484 312.924L296.292 312.823L297.1 312.874L297.857 313.177L298.514 313.783L299.069 314.792L299.423 316.155L299.473 317.518L299.019 318.528L298.009 319.033L297.857 320.295L298.261 323.374L298.009 324.838L297.453 325.545L296.595 325.797L295.484 325.898L295.383 326.05V326.454L295.484 326.656L296.696 328.978L297.049 329.331L297.504 328.978L297.857 328.221L298.312 327.564L299.069 327.514L299.625 327.867L300.079 328.473L300.382 329.281L300.432 330.189L300.129 330.997L299.625 331.552L299.17 332.209L298.867 334.379L298.665 335.288L298.615 336.045L298.968 336.702L299.221 336.752L300.23 336.651L300.584 336.853L301.19 337.56L301.543 337.863L302.2 338.115L303.512 338.216L304.118 338.469L304.775 339.125L305.684 340.639L306.441 341.195L307.703 341.397L308.865 341.296L310.026 341.447L311.187 342.406L311.389 342.81L311.692 343.87L311.894 344.173L312.248 344.224L312.601 343.971L313.005 343.82L313.46 344.072L313.561 344.476V345.738L313.611 346.293L313.762 346.697L314.217 347.555L314.419 348.01L314.469 349.07L314.116 352.705L313.964 353.361L313.762 353.916L313.611 354.471V355.229L313.762 355.835L314.267 357.046L314.368 357.601L313.914 358.863L313.005 359.015L312.298 359.065L312.45 360.378L313.005 361.085L314.772 361.842L314.823 361.993L315.025 362.549L315.176 362.65L315.429 362.549L315.934 362.246H316.186L316.489 362.498L316.742 362.852L317.247 363.861L316.944 364.366L318.761 365.83L319.418 366.638L319.822 366.284L320.428 366.183L321.084 366.284L321.639 366.638L320.68 368.405L319.62 369.414L317.852 369.717L313.106 369.414L312.45 369.566L311.743 369.97L310.228 371.282L309.42 371.383L308.612 370.474L308.511 370.071V368.96L308.461 368.405L308.259 367.9L307.4 366.587L305.28 364.568L304.775 363.659V365.275L304.32 366.133L303.512 366.436H302.402L302.149 366.789L302.351 368.203L302.048 369.162L301.493 369.717L300.836 369.97L300.129 369.919L299.524 369.566L298.968 368.809L298.413 367.546L297.807 367.042L297.235 366.84L295.972 366.587L295.366 366.335L295.114 365.931L295.063 365.477L295.114 365.022L295.366 364.568L295.568 364.164L295.669 363.76L295.619 363.356L295.417 363.003L294.457 362.852L293.599 363.306L292.842 364.164L291.074 366.84H290.569L289.863 365.78L288.903 363.76L288.348 363.558L287.641 364.77L287.489 365.477L287.691 366.638V367.143L287.388 367.9L287.186 368.001L286.883 367.9L286.379 368.051L284.914 369.667L284.005 370.222L283.298 369.667V369.061L283.551 368.506L283.904 367.95L284.157 367.395L284.258 366.688L284.207 361.791L283.955 360.529L283.298 359.722H282.44L278.906 361.741L276.734 362.549L273.755 364.568L272.947 365.83L272.695 367.445L272.998 369.566L273.705 372.342L273.755 373.251L273.503 374.311L273.2 375.169V375.977L273.907 376.886L276.28 379.107L276.482 380.369L276.028 381.732L275.119 383.297L273.755 384.862L273.452 385.771L273.553 387.184L274.26 389.708L274.159 390.869L273.149 391.324L266.131 393.141L265.424 393.595L264.97 394.454V395.413L265.525 397.432L265.676 398.492L265.626 399.653L265.374 400.411L264.869 400.915L264.111 401.37L262.95 401.622L262.647 401.875V402.228L262.748 402.733L262.798 403.339L262.647 403.894L261.587 404.5L258.91 404.752L258.254 405.812L258.557 406.872L258.305 407.327L257.143 407.68L256.436 408.134L255.982 408.589L255.073 410.002L254.77 410.659L255.123 411.062L255.729 411.416L256.234 411.971L256.487 412.779L256.537 413.587L256.689 414.394L257.244 415.151L256.184 415.656L255.931 415.858L255.679 416.363V416.515L255.78 416.615L256.032 418.534L255.83 419.19L254.972 419.594L252.397 419.493L249.367 418.685L246.489 418.483L244.369 420.099L244.015 420.755L243.712 421.462L243.611 421.866L244.167 422.522L245.176 422.421L246.338 423.077L247.095 424.137L246.893 425.248L248.054 428.327L248.862 429.741L249.771 430.347L250.428 430.549L251.841 431.356L255.426 432.265L258.759 434.032L264.111 435.244L265.626 435.042L266.888 434.991L267.393 434.789L267.848 434.284L266.737 433.78L266.434 433.527L266.232 433.123L266.131 432.618L266.232 432.164L267.393 431.609L267.343 430.751L267.393 429.943L268.454 429.69L269.06 429.892L270.12 430.65L271.029 430.801L271.534 431.154L272.19 431.861L272.998 432.316L273.907 431.962L274.109 431.558L274.21 430.448L274.462 429.943L274.765 429.741L275.119 429.64L276.028 429.589L276.583 429.287L278.653 427.57L280.37 427.065L281.077 426.762L281.632 426.157L281.935 426.005L282.895 425.955L283.096 425.803L283.248 425.399L283.601 424.996L284.207 424.491L285.066 424.036L285.722 423.986L286.379 424.137H287.237L287.59 423.986L287.944 423.734L288.247 423.431L288.499 423.128L288.853 422.875L289.307 422.976L289.762 423.229L290.165 423.33L293.246 423.633L298.85 425.652L300.719 427.318L301.173 427.57L302.082 428.428L302.738 430.397L302.94 432.618L302.435 434.234L302.688 434.587L302.738 434.991L302.637 435.395L302.435 435.799L303.041 435.95L303.748 435.748L304.404 435.395L305.162 434.638L305.212 434.587L305.162 434.486L305.111 434.032L305.212 433.426L305.667 432.063L305.717 431.609L306.02 430.801L306.172 430.296L306.222 429.791L306.121 427.368L305.97 426.157L305.667 425.097L305.111 424.491L305.919 424.541L306.323 423.834L306.273 422.724L305.97 421.815L305.364 421.108L305.061 421.563L304.859 422.522L304.606 423.38L304.404 422.421L304.152 422.219L303.849 422.27L303.546 422.169V422.37L303.344 422.572L303.092 422.623L302.991 422.37V421.058L302.334 421.209L302.233 421.765L302.284 422.471L302.132 422.976L301.678 423.027L301.223 422.724L300.87 422.27L300.264 420.906V420.402L300.87 420.2L301.122 419.947L301.324 419.392L301.577 418.837L301.981 418.584L302.536 418.13L303.849 416.06L304.354 415.404L303.294 416.464L302.688 416.868L301.93 417.019L301.173 416.969L300.618 416.767L299.608 416.262L299.961 413.688L299.86 410.911L300.113 408.639L301.476 407.579L301.173 406.923L300.971 406.519L300.87 406.065L300.92 405.206L301.122 404.5L301.88 403.49L302.031 403.036L301.88 402.783L301.324 402.026L301.173 401.622L301.274 401.168L301.476 400.865L301.678 400.814L301.88 401.319L302.132 401.572L302.991 402.278L303.142 402.329L303.243 402.43L303.496 402.783L303.799 403.44L303.748 403.793L303.496 404.247L303.243 405.156L303.496 407.882L303.395 408.286L304.303 408.791L305.061 410.002L305.515 411.567L305.465 413.082L305.97 412.627L307.081 412.224L307.687 411.87L307.485 411.416V411.264L307.586 411.163L307.687 410.81L308.494 411.214L309.201 410.86L309.807 410.305L310.514 410.002L310.716 409.8L310.413 409.396L309.807 408.791L308.747 408.387L308.191 408.033L307.888 407.276L308.141 406.115L308.999 405.509L310.11 405.307H311.019L311.12 405.206L311.221 404.954L311.322 404.702L311.574 404.601L311.928 404.702L311.978 404.904L311.928 405.156L312.029 405.358L312.887 405.964L313.19 406.368L313.392 406.923L313.645 405.358L313.291 404.904L312.988 404.298L312.786 403.54L312.837 402.581L313.14 401.774L313.493 401.622L313.645 401.976L313.392 402.581V402.985L313.796 403.49L314.2 404.146L314.402 402.834L314.503 401.42L314.806 400.259L315.715 399.805L316.674 400.209L318.542 401.723L318.896 401.521L318.997 401.269L319.249 401.37L319.502 401.572L319.603 401.673L319.906 401.622L319.956 401.42V401.117L320.108 400.714L320.158 400.36L320.31 398.846L320.512 398.189L320.815 397.634L321.168 397.23L321.471 397.331L321.724 400.562L321.623 401.319L324.248 399.199L326.52 396.927L330.964 391.021L335.912 386.275L336.265 385.468L337.073 383.196L337.427 382.742L338.083 382.388L338.639 381.581L339.497 379.915L342.325 375.927L343.486 373.604L343.688 373.049V372.393L343.385 371.938L342.476 371.333L342.274 371.03L342.779 370.272L344.95 370.424L345.607 369.818L347.273 367.597L347.374 367.345L347.727 365.578L347.879 365.224L348.03 364.972L348.131 364.871L348.333 364.719L348.131 364.366L347.828 364.063H347.677L347.374 362.902L346.717 361.438L346.566 360.681L346.818 360.176L348.03 358.51L348.535 358.056H348.939L350.605 358.46L351.11 358.308L353.484 356.642L354.039 356.44L354.493 356.642L354.847 356.693L355.806 355.885L356.16 355.633L357.069 355.532L358.735 354.976L360.906 354.673L362.976 354.017H364.087L366.864 354.774L367.622 355.33L367.924 354.875L368.429 355.229L369.54 355.38L370.096 355.683L370.651 355.229L372.418 354.27L373.226 354.068L373.731 353.563L375.094 351.392L375.7 350.887L375.751 350.685L376.508 349.524L376.811 348.767L376.66 348.363L375.397 347.353L375.044 347.152L374.792 346.798L374.691 345.94L374.64 345.587L374.186 344.123L374.792 344.375L375.246 345.132L375.852 346.596L376.407 347.051L376.912 347.404L377.367 347.252L377.518 347.101L377.569 346.899L378.326 345.688L378.578 345.385L378.881 345.183L379.639 344.88L379.942 344.627L380.245 343.921L380.497 343.062L380.851 342.709L381.356 343.466L379.487 346.243L378.982 346.697V347.252L378.427 348.515L376.205 352.25L375.801 353.26L375.953 354.068L376.256 354.27L376.71 354.32L377.569 354.27L377.922 354.371L378.477 354.926L378.78 355.128L379.689 354.976L380.093 354.27L380.396 353.462L381.103 353.108L383.527 352.907L387.415 354.421L389.131 354.673L390.899 354.32L391.353 354.068L392.262 353.462L392.565 353.108L392.918 352.351L392.868 351.998L392.666 351.544L392.565 350.534L392.868 347.959L392.716 347.555L391.202 345.536V343.971L391.707 342.709L392.565 341.851L393.524 341.548L394.433 340.892L395.14 339.327L395.494 337.61L395.342 336.348L394.484 336.853L393.575 337.156L392.868 336.954L392.514 335.944L392.716 334.985L393.272 334.077L394.433 332.714L393.12 332.461L391.303 332.714L390.04 332.158L390.343 329.483L390.646 329.079L391.202 328.12L391.505 327.16L391 326.706L390.798 326.605L390.596 326.353L390.293 326.05L389.283 325.797L389.081 325.495L389.131 322.062L388.728 321.355L386.96 320.901L386.152 320.396L385.547 319.74L385.294 319.083L385.395 318.78L385.95 317.72L386.102 317.518L386.506 317.72L386.556 318.175L386.354 319.336L386.708 320.042L389.182 321.254L389.737 321.86L389.889 322.314V322.92L389.99 324.031L390.293 324.939L390.697 325.192L391.202 325.343L391.757 325.848L392.363 327.362L392.212 328.776L391.101 331.25L391.707 331.906L392.464 332.007L394.231 331.704L395.342 331.855L395.595 332.259L395.292 332.865L394.08 334.682L393.928 335.44L394.332 335.944L396.352 336.298L396.756 336.904L396.806 337.762L396.604 338.923L395.746 340.993L394.686 342.709L393.928 344.526L394.08 346.95L394.484 347.959L394.938 348.767L395.292 349.625L395.443 350.736L395.645 351.695L396.15 352.856L396.806 353.866L397.362 354.522L398.018 354.825L400.492 355.33L401.149 355.784L401.704 357.904L402.26 358.51L403.219 357.299L403.623 357.248L404.431 356.945L404.885 356.895L405.289 356.693L405.946 355.885L406.4 355.734L406.602 355.885L407.208 356.895L409.884 358.359L412.813 357.955L418.215 354.875L419.175 355.077L420.286 354.522L421.346 353.714L422.305 353.26L421.851 354.219L421.295 354.774L420.689 355.229L420.084 355.885L419.377 356.339L417.508 356.541L416.751 357.046L413.923 359.419L412.813 360.933L413.57 361.993L412.459 363.154L410.894 363.811L409.177 363.962L407.511 363.558L405.34 362.145L400.947 361.135H400.139L397.816 361.539L394.383 360.782H390.949L390.394 360.58L388.071 359.166L386.708 358.762L379.689 359.318L379.083 359.015L378.023 357.854L376.761 356.844L377.417 358.207L382.113 363.003L382.668 363.205L382.971 363.558L383.88 365.982L383.83 364.164L383.88 363.609L384.032 363.154L384.284 362.852L384.84 362.195L385.496 361.892L386.405 361.943L387.314 362.195L392.918 364.517L394.686 364.82L396.2 364.669L396.857 364.921L398.675 367.395L399.028 368.102L398.725 368.304H398.17L397.665 368.405L395.544 370.374L395.191 370.626L392.161 371.181L389.939 370.676L389.081 370.777L388.425 371.08L387.617 371.686L387.112 372.494L387.314 373.402L387.869 374.008L388.475 374.412L389.182 374.664L391.707 374.765L392.01 374.513L391.909 373.857L391.757 373.1L391.959 372.393L395.292 374.967L397.311 376.028L398.574 375.523L399.684 376.482L401.199 378.501L401.704 378.804L402.26 378.905L404.077 379.561L405.087 379.763L406.148 379.662L407.359 379.107L407.258 379.662L407.006 380.016L406.249 380.722L406.451 381.076L406.602 381.884L406.753 382.338L406.804 382.59L406.905 383.347L406.955 383.499L407.157 383.6L407.662 383.549L408.571 384.155L416.65 386.477L418.266 386.225L418.569 386.023L419.225 385.316L419.629 385.013L420.033 384.862L425.082 383.953L426.597 383.196L427.203 383.045L428.162 383.146L430.334 383.903L430.687 383.953L431.596 383.903L431.899 383.953L432.252 384.206L432.555 384.256H433.111L437.352 383.549L437.908 382.792L437.554 381.126L439.927 382.287L440.786 382.893L441.19 383.045H441.594L442.098 382.792L442.401 382.742L443.664 382.085L444.472 380.621L445.128 379.006L446.037 377.996L445.633 382.035L445.481 382.742L445.179 383.499L448.36 383.045L449.268 383.347L449.369 384.004L448.915 384.811L448.259 385.468L448.511 385.518H448.713L448.915 385.569L449.117 385.872L449.925 384.711L450.985 384.912L452.046 385.872L453.257 387.588L453.611 387.891H456.085L456.943 388.244H457.347L456.539 387.033L456.943 386.326L457.953 386.023L459.014 385.973V385.518L457.953 384.811L458.004 383.953L458.711 383.095L459.569 382.338L460.579 381.984L461.235 382.59L462.447 384.912L462.649 385.821L462.296 386.477L461.841 387.083L461.892 387.739L462.397 389.708L462.447 390.112L462.144 390.617L461.942 391.172L461.993 391.627L462.447 391.829L462.346 392.081L461.993 392.737L461.235 393.747L461.74 394.1L462.043 393.949L462.346 393.595L462.801 393.394L463.81 393.293L466.083 393.898L466.84 394.302L467.547 394.958L466.84 395.362L465.477 395.716L464.82 396.069L464.214 395.817L464.113 396.877L464.214 398.24L464.164 398.896L463.305 399.048L462.851 398.997L462.649 398.694L462.498 398.341L462.144 398.038L461.69 397.836L461.286 397.735L460.882 397.785L460.427 397.987L459.619 398.543L458.66 399.754L457.701 400.057L457.297 400.108L456.792 400.007L456.035 399.451L455.732 399.35L455.126 399.603L453.459 400.714L452.853 400.966L451.642 402.329L451.44 402.682L449.975 403.288L447.047 405.105L445.633 405.257L444.219 404.449L443.563 403.591L443.209 403.339L442.856 403.641L442.805 404.197L443.108 404.55L443.512 404.752L443.714 404.954L443.512 405.661L443.007 406.065L433.868 410.305L431.142 412.173L429.93 413.435L429.627 413.839L429.475 414.142L429.374 414.647L429.425 415.101L429.576 415.656L429.526 416.111L428.97 416.313L428.516 416.262L427.758 415.959L427.355 415.909L426.749 416.01L426.446 416.313L426.193 416.716L425.84 417.12L425.284 417.575L424.678 417.928L423.921 418.18L422.962 418.281L422.204 418.483L417.458 422.118L416.246 423.38L415.691 424.895L415.842 425.702L416.953 428.782L417.862 428.933L419.276 429.64L420.134 429.943H423.012L423.618 429.589L425.032 428.075L425.688 427.621L426.547 427.469L432.555 427.974L434.222 428.63L435.686 429.589L438.261 431.861L438.614 432.063L439.321 432.366L439.675 432.618L440.129 433.477L440.483 433.981L441.493 434.587L442.906 436.354L443.512 436.909L445.33 437.414L446.188 437.869L446.542 438.676L446.946 439.232L447.855 438.979L449.268 438.121L450.783 437.566L452.449 437.313L453.156 437.616L455.378 439.636L458.155 441.402L459.165 442.715L459.821 445.037L459.973 446.501L460.124 447.006L460.831 448.419L460.932 448.773L461.084 449.682L461.538 451.903V453.215L461.387 454.326L461.134 455.285L460.68 455.992L459.115 456.547L458.559 457.254L458.206 458.264L457.953 459.425L457.852 459.728L457.701 459.93L457.398 460.182L457.751 460.889L457.953 461.747L458.206 463.312L458.61 464.473L458.66 465.079L458.509 465.987L458.155 466.593L457.65 467.199L457.297 467.906L457.347 468.764L457.701 469.067L459.014 469.319L459.569 469.521L458.761 469.875L456.691 469.925L456.135 470.127L455.832 470.329L455.378 470.379L454.52 470.329L454.166 470.43L453.257 471.086L452.904 471.238L451.692 471.49L451.541 471.339L451.591 471.995L451.894 472.651L456.186 475.68L456.691 476.235L457.398 476.791L458.256 476.74L459.115 476.488L459.821 476.437L460.276 476.841L461.488 478.406L461.74 478.911L461.993 479.971L462.548 480.476L465.578 481.889L466.386 482.091L469.062 482.142L469.516 482.091L470.324 481.839H470.829L473.354 482.849L474.262 483L475.07 482.899L479.413 480.829L480.322 480.678L480.877 480.476L482.24 479.517L482.695 479.062L483.25 478.103L483.604 477.245L484.109 476.639L486.027 476.235L486.532 475.831L487.391 474.468L487.492 474.267V473.913L487.694 473.711L487.744 473.56L488.198 473.61H488.754L489.663 473.711L490.016 473.61L490.42 472.904L491.985 468.814L493.349 466.442L493.753 465.937L493.955 465.533L495.57 463.261H495.722L495.772 463.312V463.463L495.823 463.615L496.833 462.555L498.146 461.999L501.377 461.293L502.892 460.636L505.719 458.718L507.184 458.163L509.961 458.667L510.617 458.365L511.173 457.961L512.485 458.264L513.192 458.112L513.495 457.86L513.748 457.506L514.051 457.203L514.505 456.951L514.909 456.901L516.272 456.951L517.08 457.254L517.585 457.961L517.939 458.718L518.343 459.324L520.059 459.576L521.17 457.809L522.029 455.336L523.039 453.518L523.745 453.165L525.462 452.761L526.169 452.105L527.078 450.237L527.785 449.732L528.795 450.338L529.047 450.085L529.451 449.783L529.603 449.53L531.521 451.045L531.269 449.328L531.319 448.571L531.774 447.915L532.38 447.662L533.692 447.763L534.248 447.511V447.157L533.087 446.653L532.834 446.4L532.683 445.845L532.784 445.391L532.986 444.936L533.087 444.28L533.44 443.826L535.561 442.109L537.025 441.402L538.691 441.049H540.458L542.175 441.352L545.104 442.513L547.729 444.179L548.184 444.633L549.396 446.097L549.648 446.653L550.002 447.915L550.81 448.319L553.587 447.814L556.667 448.016L557.273 447.359L557.979 446.047L558.888 445.138L560.151 445.693V445.29L562.423 446.703L566.008 447.511L566.816 447.309L566.967 447.006L567.22 446.047L567.371 445.693L567.775 445.441L568.23 445.34L571.815 445.189L574.693 444.128L575.248 443.624L575.349 442.765L574.844 441.907L573.733 440.696L573.481 439.484V438.272L573.834 434.941L574.137 433.729L574.592 432.568L575.097 431.811L575.45 431.659L576.359 431.609L576.712 431.407L576.965 430.902L576.864 430.65L576.611 430.397L576.46 429.993L576.662 428.832L577.217 428.226L577.975 428.025L578.934 428.176L580.146 428.832L580.6 428.984H581.105L582.418 428.63L582.721 428.025L582.418 426.712L581.711 424.743L581.105 424.036L580.499 423.683L579.843 423.834L579.136 424.592L578.53 424.794L577.874 424.188L576.864 422.875L576.056 422.724L573.683 423.279L572.875 423.077L571.613 422.219L570.855 422.068L570.401 422.219L570.047 422.572L569.694 422.875H569.189L569.542 421.866L569.239 421.159L568.583 420.957L567.927 421.512L567.422 422.017L562.827 421.967L562.019 422.27L561.161 423.128L560.05 423.834L559.898 424.087L559.343 425.803L558.131 427.368L556.667 427.671L555.101 427.116L552.072 425.298L551.365 424.743L551.062 424.036L551.264 423.027L551.567 422.118L551.466 421.563L550.507 421.462L549.85 421.866L549.295 422.724L548.941 423.784L548.79 424.844L548.689 425.097L548.083 425.955L547.881 426.157L547.326 426.308L547.124 426.661L547.073 427.166L546.922 427.722L545.811 428.883L544.952 429.438L537.833 431.407L536.318 431.255L530.36 427.065L518.797 410.002L515.313 403.137L513.192 397.432L512.788 396.725L512.334 396.069L511.981 395.312L510.516 388.295L510.163 387.386L509.961 386.528L509.759 382.843L509.506 381.884L509.456 381.429L509.506 380.823L509.708 380.268L510.415 379.309L510.567 379.056L512.284 378.249L512.384 377.693L512.435 377.037L512.738 376.532L513.192 376.28L513.293 376.532L513.344 376.936L513.596 377.29L514.101 377.441H514.505L518.292 376.482L520.059 375.371L521.423 373.806L523.796 370.121L525.159 368.708L525.462 368.051L525.664 367.143L525.513 366.638L525.311 366.183L525.159 365.426L524.755 364.568L524.048 363.508L523.745 362.347L524.604 361.236L524.705 362.296L525.109 363.356L525.614 364.164L526.22 364.568L526.724 365.073L527.027 365.275L527.431 365.376L528.088 365.426L528.391 365.527L527.583 367.698L527.33 369.263L527.684 370.575L528.643 371.434L529.451 371.383L530.158 370.777L530.865 370.02L530.713 371.484L530.158 372.443L528.694 373.958L527.532 376.028L527.128 377.037L526.169 378.097L525.058 380.319L522.988 381.429L518.797 382.691L518.999 383.247L519.1 383.499L517.686 384.408L516.424 385.872L516.272 386.427L516.979 386.679L518.494 385.922L519.453 385.215L520.817 384.912L521.776 384.105L523.392 383.549L524.351 382.54L525.361 381.126L527.482 376.785L528.34 375.775L532.178 369.465L532.784 368.859L534.197 367.9L534.803 367.294L536.015 365.578L536.621 364.871L537.378 364.316L542.125 361.892L543.438 360.681L546.669 356.895L547.881 355.935L550.103 354.673L553.082 352.957L554.041 353.007L559.545 351.947L562.423 352.351L563.938 351.998H564.645L565.503 352.351L565.755 352.604L565.957 352.856L566.311 353.563L566.412 353.664L566.866 353.967V354.27L566.816 354.623L566.715 354.875L566.917 355.431L566.967 355.33L567.018 354.976L567.422 354.825L567.826 354.572L567.977 354.774V355.633H568.28L568.533 353.916L569.29 352.604L572.017 349.726L573.178 348.817L574.491 348.212L576.51 347.808L578.177 346.798H580.802L581.105 346.596L581.459 346.192L581.913 345.789L582.57 345.587L583.68 345.94L584.387 345.99L585.044 345.587L585.599 345.99L586.912 346.445L587.518 346.798L588.982 348.515L589.336 348.767V349.827L588.831 351.897L588.073 353.512L587.265 353.159H586.962V353.613L587.972 353.916L588.982 352.957L589.74 351.392L590.042 349.827L590.446 348.414L591.204 347.101L591.759 345.789L591.406 344.425L592.719 344.224L594.839 342.154L596.253 341.649L596.708 341.397L598.02 340.286L598.475 340.034L599.182 339.932L603.827 338.115L605.695 336.651L606.453 336.449L607.816 336.702L609.23 337.408L610.139 338.569L609.987 340.034L610.896 339.63L611.552 338.67L612.613 336.601L616.854 330.593L619.379 327.918L620.742 327.413L625.943 328.372L627.66 328.322L632.002 326.757L635.587 327.362L636.041 327.11L637.051 327.362L638.617 327.968L638.97 327.817L640.03 327.211L640.232 327.009L640.434 326.908L641.747 327.968L642.757 328.372V329.331L641.848 331.199L643.211 330.543L645.383 327.514L646.19 326.706L645.534 325.192L645.332 323.324L645.585 321.557L646.342 320.194L647.099 319.689L648.008 319.235L648.867 318.679L649.422 317.821L649.523 316.61L649.17 315.953L648.513 315.65L647.806 315.6L646.292 315.852L645.534 315.751L645.029 315.146L645.13 314.186L645.635 313.126L646.847 311.46L647.857 309.643L648.109 307.977L647.958 303.737L648.513 301.667L649.271 299.597L650.28 297.881L651.644 296.921L660.076 295.76L661.086 295.306L661.843 294.65L663.358 292.933L664.115 292.378L664.721 292.277L666.135 292.832L666.994 292.731L667.398 291.772L667.751 289.299L668.458 286.572L669.468 284.25L670.831 282.534L672.699 281.777L679.213 282.029L681.384 283.493L682.192 283.695L683 283.645L684.616 283.19L690.624 282.988L691.432 283.14L692.795 284.048L693.502 284.402L694.411 284.351L696.128 283.846L697.037 284.149L698.198 284.351L700.622 283.846L701.834 283.947L705.873 285.008L707.186 284.755L708.196 283.745L708.852 282.231L709.155 280.515L709.105 280.111L708.903 279.303V278.899L709.004 278.344L709.408 277.435L709.559 276.981L709.66 276.072L709.609 275.466L709.054 274.154L708.65 273.497L708.347 273.144L708.246 272.841L708.6 272.286L709.054 271.983L711.276 271.579L711.528 271.63L711.629 271.529L711.68 270.973L711.074 269.106L711.175 267.692L711.68 266.531L713.699 262.745L714.457 261.836L716.376 260.372L717.082 259.564L717.587 258.454L717.688 257.293L717.082 256.283L716.224 256.081L714.103 256.838L713.295 256.939L710.518 255.172L713.245 252.85L713.952 251.941L714.861 251.033L714.457 250.528L714.154 249.72L713.75 248.155L712.488 245.379L712.084 245.025L711.68 244.521L711.579 243.561L711.781 243.511L712.134 243.561L712.538 243.41L712.69 242.905L712.639 242.703L712.538 242.451L712.437 242.097L712.387 241.643L712.084 240.078L711.276 239.018L710.215 238.412L705.419 237.806L704.611 238.109L703.045 238.21L703.449 236.696L705.924 228.518L706.277 228.013L707.287 227.609L707.59 227.054L707.842 226.347L708.196 225.691L709.004 224.782L709.862 224.328L710.821 224.277L715.265 226.044L716.88 225.842L718.648 224.428L719.405 223.419L719.961 222.207L719.86 221.046L719.102 220.036L718.092 219.885L717.335 220.642L716.628 221.551L715.77 222.005L715.265 221.803L714.507 220.794L714.103 220.44L713.649 220.339L712.235 220.541L709.054 219.835L708.095 219.431L707.64 218.825L707.337 217.967L706.782 216.856L706.075 216.149L705.267 215.594L704.712 214.837L705.015 211.757L705.722 211.253L707.741 211.404L711.074 210.243H712.286L713.497 210.445L714.103 210.394L714.558 210.091L714.76 209.486L714.659 207.517L714.861 206.659L715.719 205.195L716.83 204.135L719.203 202.519L719.961 201.661L721.273 199.541L722.031 198.884L722.99 198.329L723.293 197.774L723.344 195.552L723.899 193.483L724 192.372L723.546 191.43Z" fill="#4E555D"/>
</svg>