<svg width="58" height="42" viewBox="0 0 58 42" fill="none" xmlns="http://www.w3.org/2000/svg">
<path d="M45 8H35V1C35 0.734784 34.8946 0.48043 34.7071 0.292893C34.5196 0.105357 34.2652 0 34 0H6C5.73478 0 5.48043 0.105357 5.29289 0.292893C5.10536 0.48043 5 0.734784 5 1C5 1.26522 5.10536 1.51957 5.29289 1.70711C5.48043 1.89464 5.73478 2 6 2H11V8H1C0.734784 8 0.48043 8.10536 0.292893 8.29289C0.105357 8.48043 0 8.73478 0 9V17C0 17.2652 0.105357 17.5196 0.292893 17.7071C0.48043 17.8946 0.734784 18 1 18H11V24H1C0.734784 24 0.48043 24.1054 0.292893 24.2929C0.105357 24.4804 0 24.7348 0 25V33C0 33.2652 0.105357 33.5196 0.292893 33.7071C0.48043 33.8946 0.734784 34 1 34H11V40H5.88C5.61478 40 5.36043 40.1054 5.17289 40.2929C4.98536 40.4804 4.88 40.7348 4.88 41C4.88 41.2652 4.98536 41.5196 5.17289 41.7071C5.36043 41.8946 5.61478 42 5.88 42H34C34.2652 42 34.5196 41.8946 34.7071 41.7071C34.8946 41.5196 35 41.2652 35 41V34H45C45.2652 34 45.5196 33.8946 45.7071 33.7071C45.8946 33.5196 46 33.2652 46 33V25C46 24.7348 45.8946 24.4804 45.7071 24.2929C45.5196 24.1054 45.2652 24 45 24H35V18H45C45.2652 18 45.5196 17.8946 45.7071 17.7071C45.8946 17.5196 46 17.2652 46 17V9C46 8.73478 45.8946 8.48043 45.7071 8.29289C45.5196 8.10536 45.2652 8 45 8ZM13 2H33V8H13V2ZM2 16V10H22V16H2ZM2 32V26H22V32H2ZM33 40H13V34H33V40ZM44 32H24V26H44V32ZM33 24H13V18H33V24ZM44 16H24V10H44V16Z" fill="#009142"/>
<path d="M3 40H1C0.734784 40 0.48043 40.1054 0.292893 40.2929C0.105357 40.4804 0 40.7348 0 41C0 41.2652 0.105357 41.5196 0.292893 41.7071C0.48043 41.8946 0.734784 42 1 42H3C3.26522 42 3.51957 41.8946 3.70711 41.7071C3.89464 41.5196 4 41.2652 4 41C4 40.7348 3.89464 40.4804 3.70711 40.2929C3.51957 40.1054 3.26522 40 3 40Z" fill="#009142"/>
<path d="M1 2H3.08C3.34522 2 3.59957 1.89464 3.78711 1.70711C3.97464 1.51957 4.08 1.26522 4.08 1C4.08 0.734784 3.97464 0.48043 3.78711 0.292893C3.59957 0.105357 3.34522 0 3.08 0H1C0.734784 0 0.48043 0.105357 0.292893 0.292893C0.105357 0.48043 0 0.734784 0 1C0 1.26522 0.105357 1.51957 0.292893 1.70711C0.48043 1.89464 0.734784 2 1 2Z" fill="#009142"/>
<path d="M57 10C57.2652 10 57.5196 9.89464 57.7071 9.70711C57.8946 9.51957 58 9.26522 58 9V1C58 0.734784 57.8946 0.48043 57.7071 0.292893C57.5196 0.105357 57.2652 0 57 0H48C47.7348 0 47.4804 0.105357 47.2929 0.292893C47.1054 0.48043 47 0.734784 47 1V9C47 9.26522 47.1054 9.51957 47.2929 9.70711C47.4804 9.89464 47.7348 10 48 10H54V16H48C47.7348 16 47.4804 16.1054 47.2929 16.2929C47.1054 16.4804 47 16.7348 47 17V25C47 25.2652 47.1054 25.5196 47.2929 25.7071C47.4804 25.8946 47.7348 26 48 26H54V32H48C47.7348 32 47.4804 32.1054 47.2929 32.2929C47.1054 32.4804 47 32.7348 47 33V41C47 41.2652 47.1054 41.5196 47.2929 41.7071C47.4804 41.8946 47.7348 42 48 42H57C57.2652 42 57.5196 41.8946 57.7071 41.7071C57.8946 41.5196 58 41.2652 58 41V33C58 32.7348 57.8946 32.4804 57.7071 32.2929C57.5196 32.1054 57.2652 32 57 32H56V26H57C57.2652 26 57.5196 25.8946 57.7071 25.7071C57.8946 25.5196 58 25.2652 58 25V17C58 16.7348 57.8946 16.4804 57.7071 16.2929C57.5196 16.1054 57.2652 16 57 16H56V10H57ZM56 40H49V34H56V40ZM55 24H49V18H56V24H55ZM49 2H56V8H49V2Z" fill="#009142"/>
</svg>
