<svg width="49" height="60" viewBox="0 0 49 60" fill="none" xmlns="http://www.w3.org/2000/svg">
<path d="M38.5254 40.5497C38.9776 40.5009 39.3809 40.8246 39.4341 41.2768C39.5449 42.2519 39.669 43.7499 39.6602 45.0893C39.6558 46.082 39.5713 46.9994 39.3545 47.5893C39.1992 48.0146 38.7246 48.2363 38.2993 48.0766C37.874 47.9218 37.6524 47.4472 37.8115 47.0219C37.9629 46.6186 38.0156 45.8959 38.0249 45.08C38.0249 43.8388 37.9004 42.4028 37.7988 41.4584C37.75 41.0063 38.0752 40.603 38.5254 40.5497ZM34.7783 6.28851C35.541 6.20452 36.2588 6.18206 36.9282 6.23577C37.5708 6.2846 38.165 6.40423 38.6968 6.60394C39.1226 6.75872 39.5967 6.54144 39.752 6.11614C39.9072 5.69085 39.69 5.21624 39.2642 5.06097C38.5859 4.81292 37.8462 4.66253 37.0566 4.60052C36.2852 4.53362 35.4605 4.5556 34.5962 4.65325C33.5293 4.768 33.6934 6.40521 34.7783 6.28851ZM14.1304 6.28851C13.3677 6.20452 12.6499 6.18206 11.9805 6.23577C11.3379 6.2846 10.7437 6.40423 10.2114 6.60394C9.78565 6.75872 9.31153 6.54144 9.15626 6.11614C9.00099 5.69085 9.21827 5.21624 9.64405 5.06097C10.3223 4.81292 11.0625 4.66253 11.8516 4.60052C12.6231 4.53362 13.4478 4.5556 14.312 4.65325C15.3794 4.768 15.2153 6.40521 14.1304 6.28851ZM9.4546 34.6879H39.5366V36.4267H9.4546V34.6879ZM9.4546 23.2875H39.5366V25.0263H9.4546V23.2875ZM39.2612 27.3735L39.1704 28.58L38.0801 28.5302H37.981L37.9395 30.8686L38.0059 32.6039H36.353L36.4356 31.0336L36.3945 28.5302H36.2871L35.188 28.58L35.0889 28.4643L35.1797 27.2577H39.1709L39.2612 27.3735ZM34.4922 30.8598L34.5586 32.6035H32.7573L31.2539 29.7446H31.1548L31.146 30.6703L31.2124 32.6039H29.7085L29.7915 31.0336L29.7085 27.2577H31.5098L33.0132 30.1166H33.1123L33.0625 27.3159L34.583 27.2245L34.4922 30.8598ZM29.0698 31.2812L29.1607 31.3969L29.0615 32.6035H25.294L25.3765 31.0331L25.294 27.2573H29.1279L29.2192 27.373L29.1113 28.5795L27.7979 28.5297H26.9473L26.9307 29.2817H27.7485L28.6079 29.2568L28.6992 29.372L28.6001 30.5785L27.6416 30.5536H26.898L26.8897 30.8681L26.9063 31.3305H27.6992L29.0698 31.2812ZM24.5894 32.6035H23.1353L23.0938 30.9838L23.0029 29.6371H22.9038L22.0449 32.0995H20.7969L20.0864 29.6371H19.9873L19.8716 30.8271L19.7891 32.6039H18.4092L18.9297 27.2577H20.8384L20.9951 28.0185L21.4663 29.9599H21.5654L22.0859 28.0766L22.2759 27.2582H24.1597L24.5894 32.6035ZM18.0518 31.2812L18.1431 31.3969L18.0435 32.6035H14.2759L14.3584 31.0331L14.2759 27.2573H18.1094L18.2007 27.373L18.0933 28.5795L16.7798 28.5297H15.9282L15.9116 29.2817H16.7295L17.5889 29.2568L17.6797 29.372L17.5806 30.5785L16.6221 30.5536H15.8784L15.8701 30.8681L15.8867 31.3305H16.6802L18.0518 31.2812ZM12.4971 27.1669C12.9707 27.1669 13.417 27.2411 13.8355 27.3896L13.5547 28.7035L13.4473 28.7695C13.3042 28.6928 13.1387 28.6308 12.9512 28.5834C12.7642 28.5366 12.5903 28.5131 12.4307 28.5131C12.0947 28.5131 11.8521 28.6108 11.7036 28.8066C11.5547 29.0024 11.48 29.3285 11.48 29.7856C11.48 30.3202 11.5654 30.7104 11.7363 30.9555C11.9072 31.2006 12.1743 31.3232 12.5376 31.3232C12.6919 31.3232 12.8643 31.308 13.0542 31.2778C13.2441 31.247 13.4107 31.2045 13.5537 31.1493L13.686 31.2319L13.5537 32.5375C13.2232 32.6425 12.8403 32.6943 12.4053 32.6943C11.5186 32.6943 10.8506 32.4628 10.4014 32.0004C9.95216 31.538 9.72804 30.8627 9.72804 29.976C9.72804 29.0839 9.96925 28.3925 10.4512 27.9023C10.9331 27.412 11.6157 27.1669 12.4971 27.1669ZM5.87501 26.9858C5.69972 23.1352 5.41554 20.6117 5.28028 19.6738C4.81056 16.4335 4.8628 14.2426 5.0005 10.2221C5.01808 9.70306 5.0669 9.30902 5.10645 9.01165C5.31056 7.40276 5.32813 7.26995 3.28907 6.72015C2.54884 6.52093 2.00343 6.23724 1.78224 5.75384C1.56007 5.26605 1.58253 4.53021 1.94142 3.42669C2.68604 3.37347 3.52393 3.42669 4.37501 3.48382C5.52735 3.5595 6.70265 3.63519 7.83692 3.47503C9.40186 3.25335 11.0908 2.97454 12.8418 2.68597C15.0142 2.32757 17.2876 2.46185 19.5352 2.16058C24.1187 1.54876 22.5171 1.5219 26.7905 1.89446C31.0991 2.27093 35.4927 2.54437 40.4927 3.5639C40.5503 3.57708 40.6079 3.58148 40.6611 3.58148L46.8892 3.49749C47.0757 4.33978 47.1065 4.97747 46.9605 5.46087C46.8057 5.97064 46.3975 6.3471 45.7017 6.66204L45.604 6.70648C44.354 7.27825 43.853 7.50433 43.5869 8.13861C43.4141 8.54632 43.4409 8.91009 43.4854 9.51263C43.5161 9.9428 43.565 10.5322 43.543 11.33C43.4575 14.6371 43.3682 16.9477 42.7876 20.2543C42.6709 20.9555 42.4194 22.2905 42.1934 26.2123C41.9898 29.7353 41.9805 27.9521 42.1597 31.2245C42.3701 35.08 42.6665 37.4814 42.7876 38.2089C43.3682 41.5156 43.4575 45.2353 43.5425 48.5419C43.5645 49.3398 43.5156 49.9296 43.4849 50.3593C43.4404 50.9618 43.4136 51.3256 43.5864 51.7333C43.8525 52.3671 44.3535 52.5932 45.6035 53.1655L45.7012 53.2099C46.397 53.5243 46.8052 53.9013 46.96 54.4111C47.1065 54.894 47.0752 55.5326 46.8887 56.3744L40.6607 56.29C40.6079 56.29 40.5498 56.2949 40.4922 56.3075C35.4922 57.3276 31.0991 57.7275 26.79 58.1044C22.5171 58.477 24.1182 58.4501 19.5347 57.8383C17.2871 57.537 15.0132 57.5444 12.8413 57.186C11.0903 56.8974 9.40138 56.6186 7.83643 56.3969C6.70167 56.2372 5.52686 56.3124 4.37452 56.3876C3.52345 56.4452 2.68604 56.4985 1.94093 56.4452C1.58204 55.3412 1.55958 54.6054 1.78126 54.1176C2.00294 53.6347 2.54835 53.351 3.2881 53.1513C5.32716 52.6015 5.30958 52.4687 5.10548 50.8598C5.06544 50.5629 5.0171 50.1679 4.99952 49.6493C4.86183 45.6288 4.80958 42.0297 5.27979 38.789C5.41163 37.8764 5.66163 35.1371 5.85011 31.1938C5.9922 28.2494 6.00099 29.7416 5.87501 26.9858ZM43.8115 26.2153C43.9956 22.374 44.3062 21.184 44.4146 20.5649C44.9502 16.9335 45.1001 15.0449 45.1914 11.3608C45.2134 10.4428 45.169 9.83148 45.1338 9.38372C45.1069 9.02874 45.0894 8.81194 45.1069 8.77679C45.1289 8.72747 45.4619 8.57708 46.2949 8.19573L46.3926 8.15179C47.541 7.62884 48.2324 6.93255 48.5381 5.9306C48.8174 5.01312 48.7246 3.89593 48.3252 2.44183C48.2275 2.09173 47.9043 1.83489 47.523 1.83929L40.7319 1.93206C35.6826 0.907647 31.2544 0.625909 26.937 0.249444C22.5615 -0.136298 24.0523 -0.101142 19.3272 0.528741C17.0176 0.834405 14.7481 0.699639 12.5806 1.05901C10.8516 1.3471 9.18507 1.62151 7.61134 1.84319C6.64503 1.9804 5.54981 1.91009 4.47755 1.8388C3.34718 1.7636 2.23927 1.69232 1.21925 1.84759C0.931162 1.89251 0.678721 2.08245 0.567881 2.37542C-0.115225 4.19671 -0.145986 5.48675 0.288584 6.43108C0.749521 7.44622 1.6714 7.98724 2.85987 8.30657C3.51563 8.48382 3.51124 8.50579 3.4712 8.80316C3.42677 9.14007 3.37354 9.57903 3.35157 10.1689C3.20948 14.2997 3.16603 16.5844 3.64503 19.9042C3.77149 20.7778 4.13185 23.1796 4.24757 26.998C4.30128 28.7529 4.27589 29.4037 4.22462 31.1699C4.11085 35.0761 3.76808 37.7084 3.64503 38.559C3.16651 41.8793 3.20948 45.5717 3.35157 49.7031C3.37354 50.2924 3.42677 50.7309 3.4712 51.0683C3.51124 51.3652 3.51563 51.3871 2.85987 51.5649C1.6714 51.8837 0.749521 52.4247 0.288584 53.4399C-0.145986 54.3842 -0.115225 55.6738 0.567881 57.496C0.678721 57.789 0.931162 57.9794 1.21925 58.0234C2.23878 58.1786 3.34718 58.1078 4.47755 58.0326C5.5503 57.9614 6.64503 57.8906 7.61134 58.0283C9.18507 58.2499 10.8516 58.5248 12.5806 58.8124C14.7481 59.1713 17.0176 59.164 19.3272 59.4697C24.0527 60.0995 22.562 60.1347 26.937 59.749C31.2544 59.3725 35.6826 58.9633 40.7319 57.9394L47.523 58.0322C47.9038 58.0366 48.2271 57.7792 48.3252 57.4296C48.7241 55.975 48.8174 54.8583 48.5381 53.9404C48.2324 52.9384 47.541 52.2426 46.3926 51.7197L46.2949 51.6752C45.4619 51.2944 45.1289 51.1435 45.1069 51.0947C45.0894 51.0595 45.1069 50.8417 45.1338 50.4872C45.169 50.04 45.2134 49.4282 45.1914 48.5107C45.1001 44.8266 44.9502 41.5292 44.4146 37.8984C44.3013 37.2529 43.9429 34.9296 43.7715 31.1655C43.6719 28.9887 43.7061 28.4169 43.8115 26.2153ZM9.4004 42.2035C9.85255 42.2524 10.1763 42.6601 10.1274 43.1117C10.0435 43.8744 10.021 44.5922 10.0742 45.2617C10.1231 45.9042 10.2427 46.4985 10.4424 47.0302C10.5972 47.456 10.3804 47.9301 9.9546 48.0854C9.52931 48.2407 9.0547 48.0234 8.89942 47.5976C8.65138 46.9194 8.5005 46.1796 8.43849 45.3901C8.37159 44.6186 8.39405 43.7939 8.49171 42.9296C8.54005 42.4794 8.95167 42.1547 9.4004 42.2035Z" fill="#009142"/>
</svg>
