<svg width="78" height="42" viewBox="0 0 78 42" fill="none" xmlns="http://www.w3.org/2000/svg">
<path d="M51.9458 35.6111V35.6111C51.9458 34.866 51.3397 34.2601 50.5948 34.2601C49.8499 34.2601 49.2439 34.866 49.2439 35.6111C49.2439 36.3558 49.8499 36.9618 50.5948 36.9618C51.3397 36.9618 51.9456 36.3558 51.9458 35.6111ZM47.3752 35.6111C47.3752 33.8358 48.8197 32.3913 50.5948 32.3913C52.3701 32.3913 53.8146 33.8358 53.8146 35.6111C53.8146 37.3863 52.3701 38.8305 50.5948 38.8305C48.8195 38.8305 47.3752 37.3863 47.3752 35.6111Z" fill="#009142" stroke="white" stroke-width="0.1"/>
<path d="M11.5959 35.6111C11.5959 33.8358 13.0404 32.3913 14.8155 32.3913C16.5906 32.3913 18.0351 33.8358 18.0351 35.6111C18.0351 37.3863 16.5908 38.8305 14.8155 38.8305C13.0402 38.8305 11.5959 37.3863 11.5959 35.6111ZM13.4646 35.6111C13.4646 36.3558 14.0706 36.9618 14.8155 36.9618C15.5604 36.9618 16.1664 36.3558 16.1664 35.6111C16.1664 34.866 15.5604 34.2601 14.8155 34.2601C14.0706 34.2601 13.4646 34.866 13.4646 35.6111Z" fill="#009142" stroke="white" stroke-width="0.1"/>
<path d="M57.3713 35.6111C57.3713 33.8358 58.8158 32.3913 60.5911 32.3913C62.3663 32.3913 63.8107 33.8358 63.8107 35.6111C63.8107 37.3863 62.3662 38.8305 60.5911 38.8305C58.8156 38.8305 57.3713 37.3863 57.3713 35.6111ZM59.24 35.6111C59.24 36.3558 59.8462 36.9618 60.5911 36.9618C61.3361 36.9618 61.9419 36.3558 61.9419 35.6111C61.9419 34.866 61.336 34.2601 60.5911 34.2601C59.8462 34.2601 59.24 34.866 59.24 35.6111Z" fill="#009142" stroke="white" stroke-width="0.1"/>
<path d="M13.8315 16.7177H13.8815V16.6677V11.202V11.152H13.8315H10.4685H10.4357L10.4226 11.1821L8.13675 16.4531L8.13262 16.4626V16.473V16.6677V16.7177H8.18262H13.8315ZM9.20932 9.2834H15.7502V18.5866H6.26387V16.0748L9.20932 9.2834Z" fill="#009142" stroke="white" stroke-width="0.1"/>
<path d="M11.4118 21.3812V19.5124H15.6442V21.3812H11.4118Z" fill="#009142" stroke="white" stroke-width="0.1"/>
<mask id="path-6-inside-1_119_369" fill="white">
<path d="M75.8307 3.06173H73.4656V5.00423L71.7173 0L49.5571 0.734837L32.3838 11.2726C31.5663 10.6467 30.5454 10.2734 29.4384 10.2734C28.3581 10.2734 27.3591 10.6286 26.5516 11.2276V6.06556H7.18334L2.73216 16.265V25.086H0.201172V33.0292H2.02686V37.0616H9.01248C9.66266 39.6616 12.0174 41.5935 14.816 41.5935C17.6144 41.5935 19.9694 39.6616 20.6196 37.0619H23.6911V37.0609H44.7924C45.4424 39.6613 47.7973 41.5935 50.5961 41.5935C52.6834 41.5935 54.5234 40.518 55.5942 38.8932C56.6649 40.518 58.505 41.5935 60.5924 41.5935C63.734 41.5935 66.3159 39.1584 66.5549 36.0772H66.5748V28.0125V27.0281V24.5826L67.4084 23.9594H75.2292V18.1136L77.7996 16.1925V4.04611V3.06173V1.00767H75.8309V3.06173H75.8307ZM64.6059 31.1788C63.5436 30.2159 62.1353 29.6285 60.5922 29.6285C58.5049 29.6285 56.6649 30.704 55.5941 32.3288C54.5234 30.704 52.6833 29.6285 50.5959 29.6285C49.0529 29.6285 47.6444 30.2159 46.5823 31.1788V28.9969H64.6057V31.1788H64.6059ZM33.4373 17.879L36.3507 26.2175V28.3362H30.0387V19.9464C31.4461 19.7718 32.6682 18.9938 33.4373 17.879ZM44.6137 31.7241H26.5516V30.305H44.6137V31.7241ZM28.07 28.3362H26.5516V19.0306C27.0039 19.3663 27.5168 19.6243 28.07 19.7871V28.3362ZM22.8298 31.7244C22.4359 30.9089 21.9211 30.1691 21.2896 29.5221C19.724 27.9144 17.6172 27.0291 15.3574 27.0291H14.4403L15.9435 25.6689H24.5828V31.7244H22.8298ZM23.6298 34.464C23.5989 34.2051 23.5527 33.9483 23.4989 33.6934H26.5516V33.693H29.1507V35.0923H23.6787C23.669 34.8821 23.6542 34.6718 23.6298 34.464ZM31.1194 33.6929H36.5789V35.0921H31.1194V33.6929ZM38.5477 33.6929H44.6137V35.0921H38.5477V33.6929ZM57.3222 27.0281H44.6137V28.3362H38.3195V26.9128L57.868 24.3211L73.4656 12.7611V13.4436L57.3222 25.5788V27.0281ZM39.4251 9.26166L49.3236 3.1879L50.2176 5.74662L52.0761 5.0971L51.2208 2.64945L67.4292 2.11214L70.9464 12.178L57.9226 21.8305L52.5783 6.53412L50.7198 7.1838L56.0958 22.5704L44.6075 24.0934L43.605 21.2246L41.7466 21.8738L42.6143 24.3579L42.0429 24.4335L37.2158 10.6178L37.7082 10.3156L41.1049 20.0376L42.9634 19.3881L39.4251 9.26166ZM73.2538 10.3669C73.2705 10.4147 73.2544 10.4672 73.2137 10.4974L72.6028 10.9502L69.4908 2.04356L70.3358 2.01551L73.2538 10.3669ZM35.4982 11.6711L40.0493 24.6976L38 24.969L34.1454 13.9365C34.0761 13.6639 33.9833 13.4008 33.8701 13.1486L33.7323 12.7545L35.4982 11.6711ZM29.4384 12.2422C30.5916 12.2422 31.5863 12.9235 32.0483 13.9036L32.2465 14.4711C32.2962 14.6829 32.3251 14.9025 32.3251 15.1294C32.3251 16.7209 31.03 18.0162 29.4383 18.0162C27.8475 18.0162 26.5532 16.7227 26.5514 15.1325V15.1262C26.5534 13.5356 27.8475 12.2422 29.4384 12.2422ZM4.70108 16.6758L8.47222 8.03431H24.5828V9.2336H17.2965V11.2024H24.5828V15.1228C24.5828 15.1249 24.5827 15.1269 24.5827 15.1292C24.5827 15.1313 24.5828 15.1333 24.5828 15.1354V23.7001H15.185L9.43888 28.9001H4.70124V25.086H4.70091V16.6758H4.70108ZM2.16992 27.0549H2.73233V31.0606H2.16992V27.0549ZM3.99561 33.6929H9.15094C8.99968 34.1386 8.89944 34.6073 8.8576 35.0928H3.99561V33.6929ZM14.816 39.6249C12.603 39.6249 10.8024 37.8243 10.8024 35.6111C10.8024 33.3979 12.603 31.5973 14.816 31.5973C17.0292 31.5973 18.8298 33.3979 18.8298 35.6111C18.8298 37.8243 17.0292 39.6249 14.816 39.6249ZM20.7746 35.0933C20.5111 32.0363 17.9401 29.6285 14.816 29.6285C13.0427 29.6285 11.4481 30.4049 10.3516 31.6345H4.70124V30.869H10.1972L12.2649 28.998H15.3574C17.0816 28.998 18.6874 29.6719 19.8798 30.8966C20.4842 31.5159 20.9518 32.2457 21.2698 33.0643C21.4722 33.5879 21.6084 34.1368 21.6747 34.695C21.6902 34.8267 21.7021 34.9596 21.7099 35.0933H20.7746ZM50.5961 39.6249C48.383 39.6249 46.5825 37.8243 46.5825 35.6111C46.5825 33.3979 48.383 31.5973 50.5961 31.5973C52.8093 31.5973 54.6099 33.3979 54.6099 35.6111C54.6099 37.8243 52.8093 39.6249 50.5961 39.6249ZM60.5922 39.6249C58.379 39.6249 56.5785 37.8243 56.5785 35.6111C56.5785 33.3979 58.379 31.5973 60.5922 31.5973C62.8053 31.5973 64.6059 33.3979 64.6059 35.6111C64.6059 37.8243 62.8055 39.6249 60.5922 39.6249ZM73.2603 21.9906H70.0421L73.2603 19.5851V21.9906ZM75.8307 15.206L64.6059 23.5963V27.0281H59.2909V26.5619L75.4343 14.4267V5.03048H75.8307V15.206Z"/>
</mask>
<path d="M75.8307 3.06173H73.4656V5.00423L71.7173 0L49.5571 0.734837L32.3838 11.2726C31.5663 10.6467 30.5454 10.2734 29.4384 10.2734C28.3581 10.2734 27.3591 10.6286 26.5516 11.2276V6.06556H7.18334L2.73216 16.265V25.086H0.201172V33.0292H2.02686V37.0616H9.01248C9.66266 39.6616 12.0174 41.5935 14.816 41.5935C17.6144 41.5935 19.9694 39.6616 20.6196 37.0619H23.6911V37.0609H44.7924C45.4424 39.6613 47.7973 41.5935 50.5961 41.5935C52.6834 41.5935 54.5234 40.518 55.5942 38.8932C56.6649 40.518 58.505 41.5935 60.5924 41.5935C63.734 41.5935 66.3159 39.1584 66.5549 36.0772H66.5748V28.0125V27.0281V24.5826L67.4084 23.9594H75.2292V18.1136L77.7996 16.1925V4.04611V3.06173V1.00767H75.8309V3.06173H75.8307ZM64.6059 31.1788C63.5436 30.2159 62.1353 29.6285 60.5922 29.6285C58.5049 29.6285 56.6649 30.704 55.5941 32.3288C54.5234 30.704 52.6833 29.6285 50.5959 29.6285C49.0529 29.6285 47.6444 30.2159 46.5823 31.1788V28.9969H64.6057V31.1788H64.6059ZM33.4373 17.879L36.3507 26.2175V28.3362H30.0387V19.9464C31.4461 19.7718 32.6682 18.9938 33.4373 17.879ZM44.6137 31.7241H26.5516V30.305H44.6137V31.7241ZM28.07 28.3362H26.5516V19.0306C27.0039 19.3663 27.5168 19.6243 28.07 19.7871V28.3362ZM22.8298 31.7244C22.4359 30.9089 21.9211 30.1691 21.2896 29.5221C19.724 27.9144 17.6172 27.0291 15.3574 27.0291H14.4403L15.9435 25.6689H24.5828V31.7244H22.8298ZM23.6298 34.464C23.5989 34.2051 23.5527 33.9483 23.4989 33.6934H26.5516V33.693H29.1507V35.0923H23.6787C23.669 34.8821 23.6542 34.6718 23.6298 34.464ZM31.1194 33.6929H36.5789V35.0921H31.1194V33.6929ZM38.5477 33.6929H44.6137V35.0921H38.5477V33.6929ZM57.3222 27.0281H44.6137V28.3362H38.3195V26.9128L57.868 24.3211L73.4656 12.7611V13.4436L57.3222 25.5788V27.0281ZM39.4251 9.26166L49.3236 3.1879L50.2176 5.74662L52.0761 5.0971L51.2208 2.64945L67.4292 2.11214L70.9464 12.178L57.9226 21.8305L52.5783 6.53412L50.7198 7.1838L56.0958 22.5704L44.6075 24.0934L43.605 21.2246L41.7466 21.8738L42.6143 24.3579L42.0429 24.4335L37.2158 10.6178L37.7082 10.3156L41.1049 20.0376L42.9634 19.3881L39.4251 9.26166ZM73.2538 10.3669C73.2705 10.4147 73.2544 10.4672 73.2137 10.4974L72.6028 10.9502L69.4908 2.04356L70.3358 2.01551L73.2538 10.3669ZM35.4982 11.6711L40.0493 24.6976L38 24.969L34.1454 13.9365C34.0761 13.6639 33.9833 13.4008 33.8701 13.1486L33.7323 12.7545L35.4982 11.6711ZM29.4384 12.2422C30.5916 12.2422 31.5863 12.9235 32.0483 13.9036L32.2465 14.4711C32.2962 14.6829 32.3251 14.9025 32.3251 15.1294C32.3251 16.7209 31.03 18.0162 29.4383 18.0162C27.8475 18.0162 26.5532 16.7227 26.5514 15.1325V15.1262C26.5534 13.5356 27.8475 12.2422 29.4384 12.2422ZM4.70108 16.6758L8.47222 8.03431H24.5828V9.2336H17.2965V11.2024H24.5828V15.1228C24.5828 15.1249 24.5827 15.1269 24.5827 15.1292C24.5827 15.1313 24.5828 15.1333 24.5828 15.1354V23.7001H15.185L9.43888 28.9001H4.70124V25.086H4.70091V16.6758H4.70108ZM2.16992 27.0549H2.73233V31.0606H2.16992V27.0549ZM3.99561 33.6929H9.15094C8.99968 34.1386 8.89944 34.6073 8.8576 35.0928H3.99561V33.6929ZM14.816 39.6249C12.603 39.6249 10.8024 37.8243 10.8024 35.6111C10.8024 33.3979 12.603 31.5973 14.816 31.5973C17.0292 31.5973 18.8298 33.3979 18.8298 35.6111C18.8298 37.8243 17.0292 39.6249 14.816 39.6249ZM20.7746 35.0933C20.5111 32.0363 17.9401 29.6285 14.816 29.6285C13.0427 29.6285 11.4481 30.4049 10.3516 31.6345H4.70124V30.869H10.1972L12.2649 28.998H15.3574C17.0816 28.998 18.6874 29.6719 19.8798 30.8966C20.4842 31.5159 20.9518 32.2457 21.2698 33.0643C21.4722 33.5879 21.6084 34.1368 21.6747 34.695C21.6902 34.8267 21.7021 34.9596 21.7099 35.0933H20.7746ZM50.5961 39.6249C48.383 39.6249 46.5825 37.8243 46.5825 35.6111C46.5825 33.3979 48.383 31.5973 50.5961 31.5973C52.8093 31.5973 54.6099 33.3979 54.6099 35.6111C54.6099 37.8243 52.8093 39.6249 50.5961 39.6249ZM60.5922 39.6249C58.379 39.6249 56.5785 37.8243 56.5785 35.6111C56.5785 33.3979 58.379 31.5973 60.5922 31.5973C62.8053 31.5973 64.6059 33.3979 64.6059 35.6111C64.6059 37.8243 62.8055 39.6249 60.5922 39.6249ZM73.2603 21.9906H70.0421L73.2603 19.5851V21.9906ZM75.8307 15.206L64.6059 23.5963V27.0281H59.2909V26.5619L75.4343 14.4267V5.03048H75.8307V15.206Z" fill="#009142" stroke="white" stroke-width="0.2" mask="url(#path-6-inside-1_119_369)"/>
</svg>
