<svg width="48" height="58" viewBox="0 0 48 58" fill="none" xmlns="http://www.w3.org/2000/svg">
<path d="M44.55 7H42V1C42 0.734784 41.8946 0.48043 41.7071 0.292893C41.5196 0.105357 41.2652 0 41 0H1C0.734784 0 0.48043 0.105357 0.292893 0.292893C0.105357 0.48043 0 0.734784 0 1V15C0 15.2652 0.105357 15.5196 0.292893 15.7071C0.48043 15.8946 0.734784 16 1 16H41C41.2652 16 41.5196 15.8946 41.7071 15.7071C41.8946 15.5196 42 15.2652 42 15V9H44.55C44.9346 9 45.3034 9.15277 45.5753 9.4247C45.8472 9.69662 46 10.0654 46 10.45V18.55C46 18.7404 45.9625 18.929 45.8896 19.1049C45.8168 19.2808 45.7099 19.4407 45.5753 19.5753C45.4407 19.7099 45.2808 19.8168 45.1049 19.8896C44.929 19.9625 44.7404 20 44.55 20H23.45C22.5358 20.0026 21.6598 20.367 21.0134 21.0134C20.367 21.6598 20.0026 22.5358 20 23.45V28H16C15.7348 28 15.4804 28.1054 15.2929 28.2929C15.1054 28.4804 15 28.7348 15 29V57C15 57.2652 15.1054 57.5196 15.2929 57.7071C15.4804 57.8946 15.7348 58 16 58H26C26.2652 58 26.5196 57.8946 26.7071 57.7071C26.8946 57.5196 27 57.2652 27 57V29C27 28.7348 26.8946 28.4804 26.7071 28.2929C26.5196 28.1054 26.2652 28 26 28H22V23.45C22 23.0654 22.1528 22.6966 22.4247 22.4247C22.6966 22.1528 23.0654 22 23.45 22H44.55C45.4642 21.9974 46.3402 21.633 46.9866 20.9866C47.633 20.3402 47.9974 19.4642 48 18.55V10.45C47.9974 9.53581 47.633 8.65983 46.9866 8.0134C46.3402 7.36697 45.4642 7.00264 44.55 7ZM2 14V2H40V5H39.5C38.837 5 38.2011 5.26339 37.7322 5.73223C37.2634 6.20107 37 6.83696 37 7.5V8.5C37 8.63261 36.9473 8.75979 36.8536 8.85355C36.7598 8.94732 36.6326 9 36.5 9H34.5C34.3674 9 34.2402 8.94732 34.1464 8.85355C34.0527 8.75979 34 8.63261 34 8.5V7.5C34 6.83696 33.7366 6.20107 33.2678 5.73223C32.7989 5.26339 32.163 5 31.5 5C30.837 5 30.2011 5.26339 29.7322 5.73223C29.2634 6.20107 29 6.83696 29 7.5V8.5C29 8.63261 28.9473 8.75979 28.8536 8.85355C28.7598 8.94732 28.6326 9 28.5 9H26.5C26.3674 9 26.2402 8.94732 26.1464 8.85355C26.0527 8.75979 26 8.63261 26 8.5V7.5C26 6.83696 25.7366 6.20107 25.2678 5.73223C24.7989 5.26339 24.163 5 23.5 5C22.837 5 22.2011 5.26339 21.7322 5.73223C21.2634 6.20107 21 6.83696 21 7.5V8.5C21 8.63261 20.9473 8.75979 20.8536 8.85355C20.7598 8.94732 20.6326 9 20.5 9H18.5C18.3674 9 18.2402 8.94732 18.1464 8.85355C18.0527 8.75979 18 8.63261 18 8.5V7.5C18 6.83696 17.7366 6.20107 17.2678 5.73223C16.7989 5.26339 16.163 5 15.5 5C14.837 5 14.2011 5.26339 13.7322 5.73223C13.2634 6.20107 13 6.83696 13 7.5V8.5C13 8.63261 12.9473 8.75979 12.8536 8.85355C12.7598 8.94732 12.6326 9 12.5 9H10.5C10.3674 9 10.2402 8.94732 10.1464 8.85355C10.0527 8.75979 10 8.63261 10 8.5V7.5C10 6.83696 9.73661 6.20107 9.26777 5.73223C8.79893 5.26339 8.16304 5 7.5 5C6.83696 5 6.20107 5.26339 5.73223 5.73223C5.26339 6.20107 5 6.83696 5 7.5V9C4.99855 9.10242 4.9663 9.20203 4.90744 9.28586C4.84858 9.36969 4.76584 9.43386 4.67 9.47C4.46701 9.56068 4.30003 9.71641 4.19545 9.91259C4.09086 10.1088 4.05463 10.3342 4.09248 10.5533C4.13033 10.7724 4.2401 10.9726 4.40445 11.1223C4.5688 11.272 4.77836 11.3627 5 11.38C5.11259 11.3787 5.22416 11.3584 5.33 11.32C5.81214 11.1504 6.2307 10.837 6.52929 10.4222C6.82789 10.0074 6.99217 9.51105 7 9V7.5C7 7.36739 7.05268 7.24021 7.14645 7.14645C7.24021 7.05268 7.36739 7 7.5 7C7.63261 7 7.75979 7.05268 7.85355 7.14645C7.94732 7.24021 8 7.36739 8 7.5V8.5C8 9.16304 8.26339 9.79893 8.73223 10.2678C9.20107 10.7366 9.83696 11 10.5 11H12.5C13.163 11 13.7989 10.7366 14.2678 10.2678C14.7366 9.79893 15 9.16304 15 8.5V7.5C15 7.36739 15.0527 7.24021 15.1464 7.14645C15.2402 7.05268 15.3674 7 15.5 7C15.6326 7 15.7598 7.05268 15.8536 7.14645C15.9473 7.24021 16 7.36739 16 7.5V8.5C16 9.16304 16.2634 9.79893 16.7322 10.2678C17.2011 10.7366 17.837 11 18.5 11H20.5C21.163 11 21.7989 10.7366 22.2678 10.2678C22.7366 9.79893 23 9.16304 23 8.5V7.5C23 7.36739 23.0527 7.24021 23.1464 7.14645C23.2402 7.05268 23.3674 7 23.5 7C23.6326 7 23.7598 7.05268 23.8536 7.14645C23.9473 7.24021 24 7.36739 24 7.5V8.5C24 9.16304 24.2634 9.79893 24.7322 10.2678C25.2011 10.7366 25.837 11 26.5 11H28.5C29.163 11 29.7989 10.7366 30.2678 10.2678C30.7366 9.79893 31 9.16304 31 8.5V7.5C31 7.36739 31.0527 7.24021 31.1464 7.14645C31.2402 7.05268 31.3674 7 31.5 7C31.6326 7 31.7598 7.05268 31.8536 7.14645C31.9473 7.24021 32 7.36739 32 7.5V8.5C32 9.16304 32.2634 9.79893 32.7322 10.2678C33.2011 10.7366 33.837 11 34.5 11H36.5C37.163 11 37.7989 10.7366 38.2678 10.2678C38.7366 9.79893 39 9.16304 39 8.5V7.5C39 7.36739 39.0527 7.24021 39.1464 7.14645C39.2402 7.05268 39.3674 7 39.5 7H40V14H2ZM25 32H24C23.7348 32 23.4804 32.1054 23.2929 32.2929C23.1054 32.4804 23 32.7348 23 33C23 33.2652 23.1054 33.5196 23.2929 33.7071C23.4804 33.8946 23.7348 34 24 34H25V56H17V34H21C21.2652 34 21.5196 33.8946 21.7071 33.7071C21.8946 33.5196 22 33.2652 22 33C22 32.7348 21.8946 32.4804 21.7071 32.2929C21.5196 32.1054 21.2652 32 21 32H17V30H25V32Z" fill="#009142"/>
<path d="M19 35C18.7348 35 18.4804 35.1054 18.2929 35.2929C18.1054 35.4804 18 35.7348 18 36V42C18 42.2652 18.1054 42.5196 18.2929 42.7071C18.4804 42.8946 18.7348 43 19 43C19.2652 43 19.5196 42.8946 19.7071 42.7071C19.8946 42.5196 20 42.2652 20 42V36C20 35.7348 19.8946 35.4804 19.7071 35.2929C19.5196 35.1054 19.2652 35 19 35Z" fill="#009142"/>
<path d="M19 44C18.7348 44 18.4804 44.1054 18.2929 44.2929C18.1054 44.4804 18 44.7348 18 45V54C18 54.2652 18.1054 54.5196 18.2929 54.7071C18.4804 54.8946 18.7348 55 19 55C19.2652 55 19.5196 54.8946 19.7071 54.7071C19.8946 54.5196 20 54.2652 20 54V45C20 44.7348 19.8946 44.4804 19.7071 44.2929C19.5196 44.1054 19.2652 44 19 44Z" fill="#009142"/>
</svg>
